<svg id="undraw_Airport_re_oqk1_1_" data-name="undraw_Airport_re_oqk1 (1)" xmlns="http://www.w3.org/2000/svg" width="259.563" height="230.539" viewBox="0 0 259.563 230.539">
  <path id="Path_24" data-name="Path 24" d="M501.009,404.91H422.787A7.8,7.8,0,0,1,415,397.123V356.537a7.8,7.8,0,0,1,7.787-7.787h78.222a7.8,7.8,0,0,1,7.787,7.787v40.586a7.8,7.8,0,0,1-7.787,7.787Z" transform="translate(-372.526 -281.264)" fill="#f2f2f2"/>
  <path id="Path_25" data-name="Path 25" d="M719.261,404.91H641.039a7.8,7.8,0,0,1-7.787-7.787V356.537a7.8,7.8,0,0,1,7.787-7.787h78.222a7.8,7.8,0,0,1,7.787,7.787v40.586a7.8,7.8,0,0,1-7.787,7.787Z" transform="translate(-487.778 -281.264)" fill="#f2f2f2"/>
  <path id="Path_26" data-name="Path 26" d="M508.8,544.213H415V492.537a7.8,7.8,0,0,1,7.787-7.787h78.222a7.8,7.8,0,0,1,7.787,7.787Z" transform="translate(-372.526 -353.081)" fill="#f2f2f2"/>
  <path id="Path_27" data-name="Path 27" d="M727.048,544.213h-93.8V492.537a7.8,7.8,0,0,1,7.787-7.787h78.222a7.8,7.8,0,0,1,7.787,7.787Z" transform="translate(-487.778 -353.081)" fill="#f2f2f2"/>
  <path id="Path_28" data-name="Path 28" d="M719.261,265.213H641.039a7.8,7.8,0,0,1-7.787-7.787v-43.89a7.8,7.8,0,0,1,7.787-7.787h78.222a7.8,7.8,0,0,1,7.787,7.787v43.89a7.8,7.8,0,0,1-7.787,7.787Z" transform="translate(-487.778 -205.75)" fill="#f2f2f2"/>
  <path id="Path_29" data-name="Path 29" d="M501.009,265.213H422.787A7.8,7.8,0,0,1,415,257.427v-43.89a7.8,7.8,0,0,1,7.787-7.787h78.222a7.8,7.8,0,0,1,7.787,7.787v43.89a7.8,7.8,0,0,1-7.787,7.787Z" transform="translate(-372.526 -205.75)" fill="#f2f2f2"/>
  <path id="Path_30" data-name="Path 30" d="M609.2,605.717H419.483a4.483,4.483,0,0,1,0-8.967H609.2a4.483,4.483,0,0,1,0,8.967Z" transform="translate(-372.526 -412.224)" fill="#ccc"/>
  <path id="Path_31" data-name="Path 31" d="M521.4,542.382H444V524.448a38.7,38.7,0,0,1,77.4,0Z" transform="translate(-387.84 -353.609)" fill="#ccc"/>
  <path id="Path_32" data-name="Path 32" d="M717.4,542.382H640V524.448a38.7,38.7,0,0,1,77.4,0Z" transform="translate(-491.341 -353.609)" fill="#ccc"/>
  <rect id="Rectangle_6" data-name="Rectangle 6" width="6.135" height="39.642" transform="translate(189.953 230.067) rotate(180)" fill="#ccc"/>
  <path id="Path_33" data-name="Path 33" d="M677.5,686.17c0,.663,9.3.256,20.765.256s20.765.406,20.765-.256-9.3-5.92-20.765-5.92S677.5,685.507,677.5,686.17Z" transform="translate(-511.144 -456.318)" fill="#ccc"/>
  <rect id="Rectangle_7" data-name="Rectangle 7" width="6.135" height="39.642" transform="translate(97.454 230.067) rotate(180)" fill="#ccc"/>
  <path id="Path_34" data-name="Path 34" d="M481.5,686.17c0,.663,9.3.256,20.765.256s20.765.406,20.765-.256-9.3-5.92-20.765-5.92S481.5,685.507,481.5,686.17Z" transform="translate(-407.643 -456.318)" fill="#ccc"/>
  <path id="Path_35" data-name="Path 35" d="M258.427,451.078h5.786l2.752-22.317h-8.539Z" transform="translate(-136.466 -226.415)" fill="#a0616a"/>
  <path id="Path_36" data-name="Path 36" d="M0,0H18.184V7.026H7.026A7.026,7.026,0,0,1,0,0H0Z" transform="translate(138.904 230.036) rotate(179.997)" fill="#2f2e41"/>
  <path id="Path_37" data-name="Path 37" d="M270.089,442.521l5.52-1.732-4.055-22.117-8.147,2.556Z" transform="translate(-139.097 -221.087)" fill="#a0616a"/>
  <path id="Path_38" data-name="Path 38" d="M0,0H18.184V7.026H7.026A7.026,7.026,0,0,1,0,0Z" transform="translate(148.767 221.488) rotate(162.577)" fill="#2f2e41"/>
  <path id="Path_39" data-name="Path 39" d="M547.739,602.512l-10.584-27.783c-2.375.558-22.288,4.964-28.957-2.137-2.286-2.434-2.731-5.96-1.325-10.481l3.892-4.891.121.006c1.472.077,36.072,2.017,38.444,12.454,2,8.8,5.652,25.2,6.724,30.022a2.131,2.131,0,0,1-1.328,2.446l-4.257,1.6a2.1,2.1,0,0,1-.742.135,2.13,2.13,0,0,1-1.988-1.367Z" transform="translate(-420.618 -391.35)" fill="#2f2e41"/>
  <path id="Path_40" data-name="Path 40" d="M534.739,609.512l-10.584-27.783c-2.375.558-22.288,4.964-28.957-2.137-2.286-2.434-2.731-5.96-1.325-10.481l3.892-4.891.121.006c1.472.077,36.072,2.017,38.444,12.454,2,8.8,5.652,25.2,6.724,30.022a2.131,2.131,0,0,1-1.328,2.446l-4.256,1.6a2.1,2.1,0,0,1-.742.135,2.13,2.13,0,0,1-1.988-1.367Z" transform="translate(-413.753 -395.046)" fill="#2f2e41"/>
  <path id="Path_41" data-name="Path 41" d="M548.724,529.308a9.059,9.059,0,0,1-7.78-4.423l-3.361-5.694,7.99-4.367,3.392,4.651,23.018-2.425a4.984,4.984,0,0,1,.377-.582h0a5.2,5.2,0,0,1,3.716-2.036,5.141,5.141,0,0,1,4.008,1.422,5.192,5.192,0,0,1-6.727,7.888,4.91,4.91,0,0,1-.388-.33l-22.046,5.621A8.89,8.89,0,0,1,548.724,529.308Z" transform="translate(-437.258 -368.745)" fill="#a0616a"/>
  <path id="Path_42" data-name="Path 42" d="M491.408,526.608a2.127,2.127,0,0,1-.858-2.052c1.313-8.657-.2-21.057-1.7-29.936a11.7,11.7,0,0,1,13.006-13.574,37.7,37.7,0,0,1,4.678.922h0a11.608,11.608,0,0,1,8.77,11.547c-.224,8.568,1.516,19.258,2.274,23.456a2.132,2.132,0,0,1-.393,1.657,2.073,2.073,0,0,1-1.461.826c-8.4.858-17.467,4.956-22.122,7.323a2.123,2.123,0,0,1-.967.237,2.09,2.09,0,0,1-1.23-.405Z" transform="translate(-411.438 -351.076)" fill="#2356ce"/>
  <path id="Path_43" data-name="Path 43" d="M535.472,508.514a2.11,2.11,0,0,1-1.167-1.131l-4.687-10.827a5.427,5.427,0,0,1,9.961-4.311l4.687,10.827a2.126,2.126,0,0,1-1.105,2.792l-6.063,2.625a2.109,2.109,0,0,1-1.625.026Z" transform="translate(-432.815 -355.31)" fill="#2356ce"/>
  <circle id="Ellipse_64" data-name="Ellipse 64" cx="11.591" cy="11.591" r="11.591" transform="translate(77.968 103.104)" fill="#a0616a"/>
  <path id="Path_44" data-name="Path 44" d="M488.871,440.832a1.876,1.876,0,0,1-2.685.154,20.965,20.965,0,0,1-5.98-7.81c-1.507-3.592-1.728-7.975-.013-11.342,1.45-2.846,4.052-4.658,6.65-6.139a10.853,10.853,0,0,1,3.232-1.366,4.245,4.245,0,0,1,3.376.664,3.561,3.561,0,0,1,1.358,3.411,10.55,10.55,0,0,1,4.626-3.472,5.363,5.363,0,0,1,3.565-.239,6.525,6.525,0,0,1,3.591,4.052,9.034,9.034,0,0,1,.592,4.372,5.252,5.252,0,0,1-2.015,3.62,5.671,5.671,0,0,1-4.7.428,36.8,36.8,0,0,0-4.729-1.317,4.452,4.452,0,0,0-4.355,1.666,8.068,8.068,0,0,0-.973,3.614l-.717,6.606a8.752,8.752,0,0,1-.6,2.756,1.536,1.536,0,0,1-.223.34Z" transform="translate(-406.317 -315.839)" fill="#2f2e41"/>
  <path id="Path_45" data-name="Path 45" d="M516.943,543.836a5.2,5.2,0,0,1-3.084-2.906,4.843,4.843,0,0,1-.17-.481L489,533.421a5.134,5.134,0,0,1-3.71-4.881l-.06-9.534,9.1.244.593,5.727,21.115,9.48a4.974,4.974,0,0,1,.619-.314h0a5.2,5.2,0,1,1,.287,9.694Z" transform="translate(-409.611 -371.17)" fill="#a0616a"/>
  <path id="Path_46" data-name="Path 46" d="M484.931,507.277a2.11,2.11,0,0,1-.529-1.537l.724-11.776a5.427,5.427,0,1,1,10.834.667l-.724,11.776a2.126,2.126,0,0,1-2.25,1.989l-6.595-.405A2.109,2.109,0,0,1,484.931,507.277Z" transform="translate(-409.173 -355.257)" fill="#2356ce"/>
  <path id="Path_47" data-name="Path 47" d="M612.15,524.065h-6.671a.858.858,0,0,1-.857-.777L603.287,509.6h11.056l-1.335,13.687A.858.858,0,0,1,612.15,524.065Z" transform="translate(-471.954 -366.204)" fill="#2356ce"/>
  <path id="Path_48" data-name="Path 48" d="M613.381,509.011h-11.02a.862.862,0,0,1-.861-.861v-2.066a.862.862,0,0,1,.861-.861h11.02a.862.862,0,0,1,.861.861v2.066A.862.862,0,0,1,613.381,509.011Z" transform="translate(-471.011 -363.892)" fill="#3f3d56"/>
  <path id="Path_52" data-name="Path 52" d="M415,624.646h-5.981a1.871,1.871,0,0,1-1.869-1.869v-4.486a1.871,1.871,0,0,1,1.869-1.869H415a1.871,1.871,0,0,1,1.869,1.869v4.486A1.871,1.871,0,0,1,415,624.646Z" transform="translate(-368.381 -422.613)" fill="#fff"/>
  <path id="Path_55" data-name="Path 55" d="M410.6,198.716l-24.434,6.6-1.444,2.887Z" transform="translate(-203.161 -104.936)" fill="#f2f2f2"/>
  <path id="Path_56" data-name="Path 56" d="M584.091,693.194H325.472a.472.472,0,1,1,0-.944H584.091a.472.472,0,1,1,0,.944Z" transform="translate(-325 -462.655)" fill="#ccc"/>
  <path id="Path_57" data-name="Path 57" d="M749.77,293.25a7.051,7.051,0,0,0-5.17,2.255,5.184,5.184,0,0,0-7.1,4.824h19.349A7.079,7.079,0,0,0,749.77,293.25Z" transform="translate(-542.828 -251.956)" fill="#fff"/>
  <path id="Path_58" data-name="Path 58" d="M529.77,244.25a7.051,7.051,0,0,0-5.17,2.255,5.184,5.184,0,0,0-7.1,4.824h19.349a7.079,7.079,0,0,0-7.079-7.079Z" transform="translate(-426.653 -226.081)" fill="#fff"/>
  <path id="Path_59" data-name="Path 59" d="M461.77,375.25a7.051,7.051,0,0,0-5.17,2.255,5.184,5.184,0,0,0-7.1,4.824h19.349A7.079,7.079,0,0,0,461.77,375.25Z" transform="translate(-390.744 -295.257)" fill="#fff"/>
  <path id="Path_60" data-name="Path 60" d="M461.77,375.25a7.051,7.051,0,0,0-5.17,2.255,5.184,5.184,0,0,0-7.1,4.824h19.349A7.079,7.079,0,0,0,461.77,375.25Z" transform="translate(-247.277 -279.212)" fill="#fff"/>
</svg>
