<svg xmlns="http://www.w3.org/2000/svg" width="237.509" height="182.279" viewBox="0 0 237.509 182.279">
  <g id="undraw_Booked_re_vtod" transform="translate(0)">
    <g id="Group_7" data-name="Group 7" transform="translate(128.657 138.413)">
      <path id="Path_149" data-name="Path 149" d="M658.642,655.982a10.857,10.857,0,0,1-1.145-4.291c-.262-2.622-.094-7.041,2.2-13.205a26.63,26.63,0,0,0-1.055-21.194l.263-.153a23.407,23.407,0,0,1,2.207,6.252,27.273,27.273,0,0,1-1.129,15.2c-4.334,11.658-1.112,17.177-1.079,17.231Z" transform="translate(-649.528 -612.645)" fill="#f2f2f2"/>
      <circle id="Ellipse_19" data-name="Ellipse 19" cx="1.98" cy="1.98" r="1.98" transform="translate(5.437)" fill="#f2f2f2"/>
      <circle id="Ellipse_20" data-name="Ellipse 20" cx="1.98" cy="1.98" r="1.98" transform="translate(11.682 7.311)" fill="#f2f2f2"/>
      <circle id="Ellipse_21" data-name="Ellipse 21" cx="1.98" cy="1.98" r="1.98" transform="translate(7.417 12.185)" fill="#f2f2f2"/>
      <circle id="Ellipse_22" data-name="Ellipse 22" cx="1.98" cy="1.98" r="1.98" transform="translate(12.596 16.298)" fill="#f2f2f2"/>
      <circle id="Ellipse_23" data-name="Ellipse 23" cx="1.98" cy="1.98" r="1.98" transform="translate(5.894 22.695)" fill="#f2f2f2"/>
      <path id="Path_150" data-name="Path 150" d="M664.556,723.775s-1.98-4.874,3.96-8.53Z" transform="translate(-654.245 -680.367)" fill="#f2f2f2"/>
      <path id="Path_151" data-name="Path 151" d="M639.848,731.049s-.9-5.183-7.876-5.139Z" transform="translate(-631.972 -687.728)" fill="#f2f2f2"/>
    </g>
    <path id="Path_140" data-name="Path 140" d="M308.231,241.775a8.005,8.005,0,1,1,8.005-8.005A8.005,8.005,0,0,1,308.231,241.775Zm0-15.734a7.729,7.729,0,1,0,7.729,7.729,7.729,7.729,0,0,0-7.729-7.729Z" transform="translate(-274.318 -204.076)" fill="#3f3d56"/>
    <path id="Path_174" data-name="Path 174" d="M570.231,241.775a8.005,8.005,0,1,1,8.005-8.005A8.005,8.005,0,0,1,570.231,241.775Zm0-15.734a7.729,7.729,0,1,0,7.729,7.729,7.729,7.729,0,0,0-7.729-7.729Z" transform="translate(-455.171 -204.076)" fill="#3f3d56"/>
    <path id="Path_146" data-name="Path 146" d="M360.946,217.469H221.495c-2.715,0-4.915,2.722-4.918,6.077V290.03c0,3.354,2.2,6.071,4.918,6.077H360.946c2.715,0,4.915-2.722,4.918-6.077V223.546c0-3.354-2.2-6.071-4.918-6.077Zm4.34,72.561c0,2.96-1.944,5.358-4.34,5.362H221.495c-2.4,0-4.336-2.4-4.34-5.362V223.546c0-2.96,1.944-5.358,4.34-5.362H360.946c2.4,0,4.336,2.4,4.34,5.362Z" transform="translate(-216.577 -198.35)" fill="#3f3d56"/>
    <rect id="Rectangle_21" data-name="Rectangle 21" width="24.778" height="17.344" transform="translate(10.221 45.86)" fill="#f2f2f2"/>
    <rect id="Rectangle_30" data-name="Rectangle 30" width="24.778" height="17.344" transform="translate(44.91 45.86)" fill="#f2f2f2"/>
    <rect id="Rectangle_31" data-name="Rectangle 31" width="24.778" height="17.344" transform="translate(79.599 45.86)" fill="#f2f2f2"/>
    <rect id="Rectangle_32" data-name="Rectangle 32" width="24.778" height="17.344" transform="translate(114.287 45.86)" fill="#f2f2f2"/>
    <rect id="Rectangle_33" data-name="Rectangle 33" width="24.778" height="17.344" transform="translate(10.221 71.257)" fill="#f2f2f2"/>
    <rect id="Rectangle_34" data-name="Rectangle 34" width="24.778" height="17.344" transform="translate(44.91 71.257)" fill="#f2f2f2"/>
    <rect id="Rectangle_35" data-name="Rectangle 35" width="24.778" height="17.344" transform="translate(79.599 71.257)" fill="#f2f2f2"/>
    <rect id="Rectangle_36" data-name="Rectangle 36" width="24.778" height="17.344" transform="translate(114.287 71.257)" fill="#f2f2f2"/>
    <path id="Path_168" data-name="Path 168" d="M375.19,395.456l-5.849-8.078,1.593-1.153,4.477,6.183,17.133-17.6,1.409,1.372Z" transform="translate(-322.026 -306.956)" fill="#2356ce"/>
    <path id="Path_176" data-name="Path 176" d="M488.19,313.456l-5.849-8.078,1.593-1.153,4.477,6.183,17.133-17.6,1.409,1.372Z" transform="translate(-400.028 -250.353)" fill="#2356ce"/>
    <rect id="Rectangle_38" data-name="Rectangle 38" width="0.423" height="29.73" transform="translate(33.595)" fill="#2f2e41"/>
    <rect id="Rectangle_40" data-name="Rectangle 40" width="0.423" height="29.73" transform="translate(115.052)" fill="#2f2e41"/>
    <path id="Path_88" data-name="Path 88" d="M719.157,742.363H601.7a.426.426,0,1,1,0-.85H719.157a.426.426,0,1,1,0,.85Z" transform="translate(-482.102 -560.085)" fill="#3f3d56"/>
    <path id="Path_238" data-name="Path 238" d="M264.19,313.456l-5.849-8.078,1.593-1.153,4.477,6.183,17.133-17.6,1.409,1.372Z" transform="translate(-245.405 -250.353)" fill="#2356ce"/>
    <g id="Group_8" data-name="Group 8" transform="translate(182.134 66.789)">
      <path id="Path_200" data-name="Path 200" d="M867.694,482.319a3.266,3.266,0,0,1,.5-.107l6.783-13.783-2.071-3.1,4.276-3.737,5.376,6.578L871.611,484.1a3.252,3.252,0,1,1-3.917-1.781Z" transform="translate(-846.573 -433.648)" fill="#ffb8b8"/>
      <path id="Path_201" data-name="Path 201" d="M881.848,449.053a1.4,1.4,0,0,1-.315.248l-6.94,4.023a1.394,1.394,0,0,1-1.9-.507q-.029-.05-.054-.1l-3.376-7.131a1.386,1.386,0,0,1,.476-1.748l4.3-2.926a1.394,1.394,0,0,1,1.771.169l6.013,6.034a1.394,1.394,0,0,1,.027,1.942Z" transform="translate(-849.15 -419.208)" fill="#ccc"/>
      <path id="Path_202" data-name="Path 202" d="M921.047,691.214l-3.664,1-5.589-13.659,5.408-1.471Z" transform="translate(-878.604 -582.399)" fill="#ffb8b8"/>
      <path id="Path_203" data-name="Path 203" d="M912.891,720.56l7.066-1.922,1.21,4.448-11.515,3.133a4.611,4.611,0,0,1,3.239-5.66h0Z" transform="translate(-877.013 -611.085)" fill="#2f2e41"/>
      <path id="Path_204" data-name="Path 204" d="M828.048,699.1h-3.8l-1.807-14.646h5.6Z" transform="translate(-816.927 -587.487)" fill="#ffb8b8"/>
      <path id="Path_205" data-name="Path 205" d="M809.244,728.236h7.323v4.611H804.634A4.611,4.611,0,0,1,809.244,728.236Z" transform="translate(-804.634 -617.71)" fill="#2f2e41"/>
      <circle id="Ellipse_33" data-name="Ellipse 33" cx="7.607" cy="7.607" r="7.607" transform="translate(7.514 1.625)" fill="#ffb8b8"/>
      <path id="Path_206" data-name="Path 206" d="M823.495,567.561h-5.189a1.4,1.4,0,0,1-1.394-1.308c-1.546-24.58-.642-42.212,2.846-55.488a1.447,1.447,0,0,1,.056-.171l.279-.695a1.387,1.387,0,0,1,1.294-.876h10.671a1.392,1.392,0,0,1,1.058.487l1.449,1.691c.028.033.055.067.08.1,6.535,9.114,12.392,26.932,19.175,50.881a1.389,1.389,0,0,1-.916,1.709l-5.575,1.785a1.4,1.4,0,0,1-1.68-.722l-14.471-30.014a1.084,1.084,0,0,0-2.05.324l-4.253,31.091A1.4,1.4,0,0,1,823.495,567.561Z" transform="translate(-812.607 -466.393)" fill="#2f2e41"/>
      <path id="Path_207" data-name="Path 207" d="M840.884,453.67h-.044l-12.962-.41a1.389,1.389,0,0,1-1.341-1.225c-1.641-13.3,2.863-16.863,4.877-17.778a1.072,1.072,0,0,0,.623-.85l.174-1.394a1.388,1.388,0,0,1,.275-.677,15.928,15.928,0,0,1,9.756-5.816,1.392,1.392,0,0,1,1.616,1.124q.006.034.011.069l.261,2a1.1,1.1,0,0,0,.221.524c6.584,8.608-.751,21.317-2.288,23.778h0A1.4,1.4,0,0,1,840.884,453.67Z" transform="translate(-819.509 -408.737)" fill="#ccc"/>
      <path id="Path_239" data-name="Path 239" d="M835.11,514.068l-9.793,1.887-.372-1.931,7.5-1.445-8.712-22.967,1.839-.7Z" transform="translate(-817.815 -452.513)" fill="#2356ce"/>
      <path id="Path_208" data-name="Path 208" d="M849.617,381.47a30.277,30.277,0,0,0-6.041-6.325,17.951,17.951,0,0,0-6.414-3.393,9.948,9.948,0,0,0-7.112.635c-2.151,1.143-4.375,3.415-4.388,5.85,0,.783.195,1.841.965,1.706l.223.031,5.577-1.126,2.375,8.244a1.593,1.593,0,0,0,2.582,1.268c.086-.036.826-1.7.826-1.7a.31.31,0,0,1,.534-.089l.44.55a.62.62,0,0,0,.722.186l9.1-3.8c.419-.175.887-.4,1.009-.841A1.511,1.511,0,0,0,849.617,381.47Z" transform="translate(-819.149 -371.381)" fill="#2f2e41"/>
      <path id="Path_211" data-name="Path 211" d="M857.96,501.364a3.327,3.327,0,0,0,.435-5.083l2.407-29.074-7.168.986L853.5,496.44a3.345,3.345,0,0,0,4.46,4.925Z" transform="translate(-837.795 -437.528)" fill="#ffb8b8"/>
      <path id="Path_212" data-name="Path 212" d="M860.169,453.066a1.4,1.4,0,0,1-.4-.057l-7.7-2.263a1.394,1.394,0,0,1-.944-1.73q.016-.056.037-.11l2.848-7.357a1.386,1.386,0,0,1,1.6-.859l5.084,1.105a1.394,1.394,0,0,1,1.1,1.4l-.237,8.515a1.394,1.394,0,0,1-1.39,1.356Z" transform="translate(-836.692 -419.201)" fill="#ccc"/>
    </g>
  </g>
</svg>
