<svg id="undraw_Business_decisions_re_84ag" xmlns="http://www.w3.org/2000/svg" width="328.488" height="223.874" viewBox="0 0 328.488 223.874">
  <circle id="Ellipse_1" data-name="Ellipse 1" cx="2.909" cy="2.909" r="2.909" transform="translate(71.701 0)" fill="#e6e6e6"/>
  <circle id="Ellipse_2" data-name="Ellipse 2" cx="2.909" cy="2.909" r="2.909" transform="translate(86.425 0)" fill="#e6e6e6"/>
  <circle id="Ellipse_3" data-name="Ellipse 3" cx="2.909" cy="2.909" r="2.909" transform="translate(101.15 0)" fill="#e6e6e6"/>
  <circle id="Ellipse_4" data-name="Ellipse 4" cx="2.909" cy="2.909" r="2.909" transform="translate(115.875 0)" fill="#e6e6e6"/>
  <circle id="Ellipse_5" data-name="Ellipse 5" cx="2.909" cy="2.909" r="2.909" transform="translate(130.599 0)" fill="#e6e6e6"/>
  <circle id="Ellipse_6" data-name="Ellipse 6" cx="2.909" cy="2.909" r="2.909" transform="translate(71.701 14.909)" fill="#e6e6e6"/>
  <circle id="Ellipse_7" data-name="Ellipse 7" cx="2.909" cy="2.909" r="2.909" transform="translate(86.425 14.909)" fill="#e6e6e6"/>
  <circle id="Ellipse_8" data-name="Ellipse 8" cx="2.909" cy="2.909" r="2.909" transform="translate(101.15 14.909)" fill="#e6e6e6"/>
  <circle id="Ellipse_9" data-name="Ellipse 9" cx="2.909" cy="2.909" r="2.909" transform="translate(115.875 14.909)" fill="#2356ce"/>
  <circle id="Ellipse_10" data-name="Ellipse 10" cx="2.909" cy="2.909" r="2.909" transform="translate(130.599 14.909)" fill="#e6e6e6"/>
  <circle id="Ellipse_11" data-name="Ellipse 11" cx="2.909" cy="2.909" r="2.909" transform="translate(160.048 14.909)" fill="#e6e6e6"/>
  <circle id="Ellipse_12" data-name="Ellipse 12" cx="2.909" cy="2.909" r="2.909" transform="translate(71.701 29.819)" fill="#e6e6e6"/>
  <circle id="Ellipse_13" data-name="Ellipse 13" cx="2.909" cy="2.909" r="2.909" transform="translate(86.425 29.819)" fill="#e6e6e6"/>
  <circle id="Ellipse_14" data-name="Ellipse 14" cx="2.909" cy="2.909" r="2.909" transform="translate(101.15 29.819)" fill="#e6e6e6"/>
  <circle id="Ellipse_15" data-name="Ellipse 15" cx="2.909" cy="2.909" r="2.909" transform="translate(115.875 29.819)" fill="#e6e6e6"/>
  <circle id="Ellipse_16" data-name="Ellipse 16" cx="2.909" cy="2.909" r="2.909" transform="translate(130.599 29.819)" fill="#e6e6e6"/>
  <circle id="Ellipse_17" data-name="Ellipse 17" cx="2.909" cy="2.909" r="2.909" transform="translate(71.701 44.728)" fill="#e6e6e6"/>
  <circle id="Ellipse_18" data-name="Ellipse 18" cx="2.909" cy="2.909" r="2.909" transform="translate(86.425 44.728)" fill="#e6e6e6"/>
  <circle id="Ellipse_19" data-name="Ellipse 19" cx="2.909" cy="2.909" r="2.909" transform="translate(101.15 44.728)" fill="#e6e6e6"/>
  <circle id="Ellipse_20" data-name="Ellipse 20" cx="2.909" cy="2.909" r="2.909" transform="translate(115.875 44.728)" fill="#e6e6e6"/>
  <circle id="Ellipse_21" data-name="Ellipse 21" cx="2.909" cy="2.909" r="2.909" transform="translate(130.599 44.728)" fill="#e6e6e6"/>
  <circle id="Ellipse_22" data-name="Ellipse 22" cx="2.909" cy="2.909" r="2.909" transform="translate(145.324 44.728)" fill="#e6e6e6"/>
  <circle id="Ellipse_23" data-name="Ellipse 23" cx="2.909" cy="2.909" r="2.909" transform="translate(160.048 44.728)" fill="#e6e6e6"/>
  <circle id="Ellipse_24" data-name="Ellipse 24" cx="2.909" cy="2.909" r="2.909" transform="translate(174.773 44.728)" fill="#e6e6e6"/>
  <circle id="Ellipse_25" data-name="Ellipse 25" cx="2.909" cy="2.909" r="2.909" transform="translate(189.497 44.728)" fill="#e6e6e6"/>
  <circle id="Ellipse_26" data-name="Ellipse 26" cx="2.909" cy="2.909" r="2.909" transform="translate(204.222 44.728)" fill="#e6e6e6"/>
  <circle id="Ellipse_27" data-name="Ellipse 27" cx="2.909" cy="2.909" r="2.909" transform="translate(130.599 59.637)" fill="#e6e6e6"/>
  <circle id="Ellipse_28" data-name="Ellipse 28" cx="2.909" cy="2.909" r="2.909" transform="translate(145.324 59.637)" fill="#2356ce"/>
  <circle id="Ellipse_29" data-name="Ellipse 29" cx="2.909" cy="2.909" r="2.909" transform="translate(160.048 59.637)" fill="#e6e6e6"/>
  <circle id="Ellipse_30" data-name="Ellipse 30" cx="2.909" cy="2.909" r="2.909" transform="translate(174.773 59.637)" fill="#e6e6e6"/>
  <circle id="Ellipse_31" data-name="Ellipse 31" cx="2.909" cy="2.909" r="2.909" transform="translate(189.497 59.637)" fill="#e6e6e6"/>
  <circle id="Ellipse_32" data-name="Ellipse 32" cx="2.909" cy="2.909" r="2.909" transform="translate(204.222 59.637)" fill="#e6e6e6"/>
  <circle id="Ellipse_33" data-name="Ellipse 33" cx="2.909" cy="2.909" r="2.909" transform="translate(130.599 74.547)" fill="#e6e6e6"/>
  <circle id="Ellipse_34" data-name="Ellipse 34" cx="2.909" cy="2.909" r="2.909" transform="translate(145.324 74.547)" fill="#e6e6e6"/>
  <circle id="Ellipse_35" data-name="Ellipse 35" cx="2.909" cy="2.909" r="2.909" transform="translate(160.048 74.547)" fill="#e6e6e6"/>
  <circle id="Ellipse_36" data-name="Ellipse 36" cx="2.909" cy="2.909" r="2.909" transform="translate(174.773 74.547)" fill="#e6e6e6"/>
  <circle id="Ellipse_37" data-name="Ellipse 37" cx="2.909" cy="2.909" r="2.909" transform="translate(189.497 74.547)" fill="#2356ce"/>
  <circle id="Ellipse_38" data-name="Ellipse 38" cx="2.909" cy="2.909" r="2.909" transform="translate(204.222 74.547)" fill="#e6e6e6"/>
  <circle id="Ellipse_39" data-name="Ellipse 39" cx="2.909" cy="2.909" r="2.909" transform="translate(130.599 89.456)" fill="#e6e6e6"/>
  <circle id="Ellipse_40" data-name="Ellipse 40" cx="2.909" cy="2.909" r="2.909" transform="translate(145.324 89.456)" fill="#e6e6e6"/>
  <circle id="Ellipse_41" data-name="Ellipse 41" cx="2.909" cy="2.909" r="2.909" transform="translate(160.048 89.456)" fill="#e6e6e6"/>
  <circle id="Ellipse_42" data-name="Ellipse 42" cx="2.909" cy="2.909" r="2.909" transform="translate(174.773 89.456)" fill="#e6e6e6"/>
  <circle id="Ellipse_43" data-name="Ellipse 43" cx="2.909" cy="2.909" r="2.909" transform="translate(189.497 89.456)" fill="#e6e6e6"/>
  <circle id="Ellipse_44" data-name="Ellipse 44" cx="2.909" cy="2.909" r="2.909" transform="translate(204.222 89.456)" fill="#e6e6e6"/>
  <circle id="Ellipse_45" data-name="Ellipse 45" cx="2.909" cy="2.909" r="2.909" transform="translate(71.701 104.366)" fill="#e6e6e6"/>
  <circle id="Ellipse_46" data-name="Ellipse 46" cx="2.909" cy="2.909" r="2.909" transform="translate(86.425 104.366)" fill="#e6e6e6"/>
  <circle id="Ellipse_47" data-name="Ellipse 47" cx="2.909" cy="2.909" r="2.909" transform="translate(101.15 104.366)" fill="#e6e6e6"/>
  <circle id="Ellipse_48" data-name="Ellipse 48" cx="2.909" cy="2.909" r="2.909" transform="translate(115.875 104.366)" fill="#e6e6e6"/>
  <circle id="Ellipse_49" data-name="Ellipse 49" cx="2.909" cy="2.909" r="2.909" transform="translate(130.599 104.366)" fill="#e6e6e6"/>
  <circle id="Ellipse_50" data-name="Ellipse 50" cx="2.909" cy="2.909" r="2.909" transform="translate(145.324 104.366)" fill="#e6e6e6"/>
  <circle id="Ellipse_51" data-name="Ellipse 51" cx="2.909" cy="2.909" r="2.909" transform="translate(160.048 104.366)" fill="#e6e6e6"/>
  <circle id="Ellipse_52" data-name="Ellipse 52" cx="2.909" cy="2.909" r="2.909" transform="translate(174.773 104.366)" fill="#e6e6e6"/>
  <circle id="Ellipse_53" data-name="Ellipse 53" cx="2.909" cy="2.909" r="2.909" transform="translate(189.497 104.366)" fill="#e6e6e6"/>
  <circle id="Ellipse_54" data-name="Ellipse 54" cx="2.909" cy="2.909" r="2.909" transform="translate(204.222 104.366)" fill="#e6e6e6"/>
  <circle id="Ellipse_55" data-name="Ellipse 55" cx="2.909" cy="2.909" r="2.909" transform="translate(71.699 119.275)" fill="#e6e6e6"/>
  <circle id="Ellipse_56" data-name="Ellipse 56" cx="2.909" cy="2.909" r="2.909" transform="translate(86.425 119.275)" fill="#e6e6e6"/>
  <circle id="Ellipse_57" data-name="Ellipse 57" cx="2.909" cy="2.909" r="2.909" transform="translate(71.699 134.184)" fill="#e6e6e6"/>
  <circle id="Ellipse_58" data-name="Ellipse 58" cx="2.909" cy="2.909" r="2.909" transform="translate(86.425 134.184)" fill="#e6e6e6"/>
  <circle id="Ellipse_59" data-name="Ellipse 59" cx="2.909" cy="2.909" r="2.909" transform="translate(115.875 134.184)" fill="#e6e6e6"/>
  <path id="Path_1" data-name="Path 1" d="M679.7,224.084H564.429a2.137,2.137,0,0,1-2.135-2.135V193.356a2.137,2.137,0,0,1,2.135-2.135H679.7a2.137,2.137,0,0,1,2.135,2.135V221.95a2.137,2.137,0,0,1-2.135,2.135Zm-115.273-32.01a1.282,1.282,0,0,0-1.281,1.281V221.95a1.282,1.282,0,0,0,1.281,1.281H679.7a1.282,1.282,0,0,0,1.281-1.281V193.356a1.282,1.282,0,0,0-1.281-1.281Z" transform="translate(-414.148 -189.766)" fill="#e6e6e6"/>
  <circle id="Ellipse_60" data-name="Ellipse 60" cx="8.966" cy="8.966" r="8.966" transform="translate(156.258 8.921)" fill="#2356ce"/>
  <path id="Path_2" data-name="Path 2" d="M648.788,215.708a1.494,1.494,0,0,0,0,2.989h39.7a1.494,1.494,0,0,0,0-2.989Z" transform="translate(-462.859 -203.799)" fill="#e6e6e6"/>
  <path id="Path_3" data-name="Path 3" d="M648.788,236.708a1.494,1.494,0,0,0,0,2.989h70.444a1.494,1.494,0,0,0,0-2.989Z" transform="translate(-462.859 -215.833)" fill="#e6e6e6"/>
  <path id="Path_4" data-name="Path 4" d="M332.7,360.085H217.429a2.137,2.137,0,0,1-2.135-2.135V329.356a2.137,2.137,0,0,1,2.135-2.135H332.7a2.137,2.137,0,0,1,2.135,2.135V357.95A2.137,2.137,0,0,1,332.7,360.085Zm-115.272-32.01a1.282,1.282,0,0,0-1.281,1.281V357.95a1.282,1.282,0,0,0,1.281,1.281H332.7a1.282,1.282,0,0,0,1.281-1.281V329.356a1.282,1.282,0,0,0-1.281-1.281Z" transform="translate(-215.294 -267.703)" fill="#e6e6e6"/>
  <circle id="Ellipse_61" data-name="Ellipse 61" cx="8.966" cy="8.966" r="8.966" transform="translate(8.112 66.984)" fill="#2356ce"/>
  <path id="Path_5" data-name="Path 5" d="M301.789,351.708a1.494,1.494,0,0,0,0,2.989H343.2a1.494,1.494,0,0,0,0-2.989Z" transform="translate(-264.005 -281.736)" fill="#e6e6e6"/>
  <path id="Path_6" data-name="Path 6" d="M301.789,372.708a1.494,1.494,0,1,0,0,2.988h70.444a1.494,1.494,0,1,0,0-2.988Z" transform="translate(-264.005 -293.77)" fill="#e6e6e6"/>
  <path id="Path_7" data-name="Path 7" d="M576.7,507.085H461.429a2.137,2.137,0,0,1-2.135-2.135V476.356a2.137,2.137,0,0,1,2.135-2.135H576.7a2.137,2.137,0,0,1,2.135,2.135V504.95A2.137,2.137,0,0,1,576.7,507.085Zm-115.272-32.01a1.282,1.282,0,0,0-1.281,1.281V504.95a1.282,1.282,0,0,0,1.281,1.281H576.7a1.282,1.282,0,0,0,1.281-1.281V476.356a1.282,1.282,0,0,0-1.281-1.281Z" transform="translate(-355.122 -351.943)" fill="#3f3d56"/>
  <circle id="Ellipse_62" data-name="Ellipse 62" cx="8.966" cy="8.966" r="8.966" transform="translate(112.284 129.744)" fill="#2356ce"/>
  <path id="Path_8" data-name="Path 8" d="M545.789,498.708a1.494,1.494,0,0,0,0,2.989h38a1.494,1.494,0,1,0,0-2.989Z" transform="translate(-403.833 -365.976)" fill="#e6e6e6"/>
  <path id="Path_9" data-name="Path 9" d="M545.789,519.708a1.494,1.494,0,1,0,0,2.989h70.444a1.494,1.494,0,1,0,0-2.989Z" transform="translate(-403.833 -378.011)" fill="#e6e6e6"/>
  <path id="Path_10" data-name="Path 10" d="M845.335,452.484c-5.006,15.018-25.486-.91-25.486-.91l5.461-56.888c8.192-6.371,16.839-.91,16.839-.91Z" transform="translate(-561.744 -304.594)" fill="#e6e6e6"/>
  <path id="Path_11" data-name="Path 11" d="M661.731,464.458l6.978.073-1.743,20.115h-5.234Z" transform="translate(-379.215 -266.165)" fill="#ffb8b8"/>
  <path id="Path_12" data-name="Path 12" d="M873.9,695.555h10.308a6.577,6.577,0,0,1,6.569,6.569v.213H873.9Z" transform="translate(-592.718 -478.782)" fill="#2f2e41"/>
  <path id="Path_13" data-name="Path 13" d="M607.052,464.457h-7.725l2.49,20.189h5.234Z" transform="translate(-343.454 -266.164)" fill="#ffb8b8"/>
  <path id="Path_14" data-name="Path 14" d="M796.309,702.337v-.214a6.569,6.569,0,0,1,6.569-6.569h10.308v6.783Z" transform="translate(-548.254 -478.782)" fill="#2f2e41"/>
  <path id="Path_15" data-name="Path 15" d="M837.691,592.716l-9.142-53.291-8.47,52.6-8.581.477-2.288-70.481.172-.039c1.419-.318,34.811-7.652,40.285,2.84l.028.053-4.569,68.076Z" transform="translate(-555.646 -377.718)" fill="#2f2e41"/>
  <circle id="Ellipse_63" data-name="Ellipse 63" cx="10.486" cy="10.486" r="10.486" transform="translate(261.87 62.453)" fill="#ffb8b8"/>
  <path id="Path_16" data-name="Path 16" d="M862.75,456.711c-1.229-.34-2.115-1.752-2.788-4.442-.116-.464-11-46.84-1.8-55.242l2.122-5.9,2.9,1.936c1.028.01,11.536.276,12.434,7.011.879,6.593,3.273,50.768.867,53.516a.52.52,0,0,1-.4.2c-2.438,0-3.178-2.705-3.352-3.567-.58.24-2.306,1.122-5.144,3.96-1.758,1.758-3.136,2.6-4.275,2.6A2.151,2.151,0,0,1,862.75,456.711Z" transform="translate(-581.585 -304.328)" fill="#2f2e41"/>
  <path id="Path_17" data-name="Path 17" d="M807.227,454.189c-2.838-2.838-4.565-3.72-5.144-3.96-.174.862-.914,3.567-3.352,3.567a.52.52,0,0,1-.4-.2c-2.406-2.748-.012-46.922.867-53.516.9-6.736,11.407-7,12.434-7.011l2.9-1.936,2.122,5.9c9.206,8.4-1.68,54.778-1.8,55.242-.673,2.69-1.558,4.1-2.787,4.442a2.152,2.152,0,0,1-.578.077C810.363,456.789,808.985,455.946,807.227,454.189Z" transform="translate(-548.818 -304.328)" fill="#2f2e41"/>
  <path id="Path_18" data-name="Path 18" d="M843.915,342.13a10.761,10.761,0,0,0-5.212-19.443,5.868,5.868,0,0,1-2.805-.63c-.711-.487-1.094-1.332-1.747-1.894a3.812,3.812,0,0,0-2.957-.745,10.7,10.7,0,0,0-2.972.977c-2.325,1.037-4.8,2.313-5.855,4.628a6.385,6.385,0,0,0,.785,6.262,8.714,8.714,0,0,0,5.557,3.281,13.89,13.89,0,0,0,6.526-.588,16.089,16.089,0,0,1,4.2-1.077,5.708,5.708,0,0,1,4.331,9.633" transform="translate(-562.902 -263.201)" fill="#2f2e41"/>
  <path id="Path_19" data-name="Path 19" d="M733.3,492.8a4.611,4.611,0,0,0,4.5-4.717l6.115-10.317-4.725-4.332L732.755,483.6a4.611,4.611,0,0,0,.548,9.2Z" transform="translate(-509.443 -351.492)" fill="#ffb8b8"/>
  <path id="Path_20" data-name="Path 20" d="M896.238,519a4.611,4.611,0,0,0,1.344-6.381l-.234-11.991-6.3-1.195-.123,12.034a4.611,4.611,0,0,0,5.31,7.533Z" transform="translate(-601.434 -366.394)" fill="#ffb8b8"/>
  <path id="Path_21" data-name="Path 21" d="M743.9,434.808l-.071-.113.071-.113c9.172-14.729,28.425-33.127,28.618-33.311l.061-.058,2.378-.024,2.57,6.4c-.8,1.54-22.37,31.64-25.218,33.636a1.965,1.965,0,0,1-1.573.3,4.142,4.142,0,0,1-1.334-.568C746.771,439.328,744.032,435.021,743.9,434.808Z" transform="translate(-518.178 -310.09)" fill="#2f2e41"/>
  <path id="Path_22" data-name="Path 22" d="M889.022,456.506a1.951,1.951,0,0,1-1.156-1.061c-1.373-3.2,4.513-43.676,4.764-45.4l.048-.326,1.99,1.261.02.086c.059.259,5.854,26.042,4.283,43.174l-.011.123-.112.052c-.239.111-5.067,2.328-8.284,2.328A4.355,4.355,0,0,1,889.022,456.506Z" transform="translate(-600.603 -314.981)" fill="#2f2e41"/>
  <path id="Path_23" data-name="Path 23" d="M830.7,711.041H717.133a.427.427,0,0,1,0-.854H830.7a.427.427,0,1,1,0,.854Z" transform="translate(-502.636 -487.168)" fill="#3f3d56"/>
</svg>
