<svg id="undraw_mobile_user_7oqo" xmlns="http://www.w3.org/2000/svg" xmlns:xlink="http://www.w3.org/1999/xlink" width="291.183" height="175.906" viewBox="0 0 291.183 175.906">
  <defs>
    <linearGradient id="linear-gradient" x1="0.5" y1="1" x2="0.5" gradientUnits="objectBoundingBox">
      <stop offset="0" stop-color="gray" stop-opacity="0.251"/>
      <stop offset="0.535" stop-color="gray" stop-opacity="0.122"/>
      <stop offset="1" stop-color="gray" stop-opacity="0.102"/>
    </linearGradient>
  </defs>
  <path id="Path_61" data-name="Path 61" d="M189.734,316v8.82a13.965,13.965,0,1,1,0,27.929v8.82H235.3V316Z" transform="translate(-144.655 -260.876)" fill="#f2f2f2"/>
  <circle id="Ellipse_65" data-name="Ellipse 65" cx="11.025" cy="11.025" r="11.025" transform="translate(33.809 66.638)" fill="#f2f2f2"/>
  <path id="Path_62" data-name="Path 62" d="M810.885,329.079,793,318.055V403.3h17.885Z" transform="translate(-598.72 -240.133)" fill="#f2f2f2"/>
  <path id="Path_63" data-name="Path 63" d="M681,351.178h17.885V260.044L681,249.02Z" transform="translate(-514.159 -188.012)" fill="#f2f2f2"/>
  <path id="Path_64" data-name="Path 64" d="M366.423,55.119,277,0V49.734h28.664v57.329H277v56.1h89.423Z" transform="translate(-209.137)" fill="#f2f2f2"/>
  <path id="Path_65" data-name="Path 65" d="M905,387.09v68.331h9.31l25.234-47.039Z" transform="translate(-683.281 -292.255)" fill="#f2f2f2"/>
  <path id="Path_66" data-name="Path 66" d="M993.914,594.126c-14.842,11.094-19.026,30.585-19.026,30.585s19.878,1.5,34.72-9.59,19.026-30.585,19.026-30.585S1008.755,583.032,993.914,594.126Z" transform="translate(-737.451 -463.571)" fill="#3f3d56"/>
  <path id="Path_67" data-name="Path 67" d="M894.584,553.095s-.218-.122-.612-.364c-.314-.193-.746-.463-1.267-.807-4.664-3.073-16.746-12.112-21.7-26.059-6.2-17.462,1.121-36,1.121-36s15.97,8.978,22.754,25.1c.3.694.569,1.4.827,2.126,5.4,15.193.553,31.2-.8,35.107C894.707,552.782,894.584,553.095,894.584,553.095Z" transform="translate(-657.136 -392.143)" fill="#2356ce"/>
  <path id="Path_68" data-name="Path 68" d="M908.361,546.478l-.227-.165c-.162-.117-16.27-11.951-20.409-29.889s5.155-35.633,5.249-35.809l.132-.248.227.165c.162.117,16.27,11.951,20.409,29.889h0c4.139,17.937-5.155,35.633-5.249,35.809ZM893.276,481.1c-1.117,2.229-8.9,18.626-5.074,35.213s18.009,27.916,19.99,29.43c1.117-2.229,8.9-18.626,5.074-35.213h0C909.438,493.944,895.257,482.615,893.276,481.1Z" transform="translate(-670.841 -384.975)" fill="#3f3d56"/>
  <path id="Path_69" data-name="Path 69" d="M962.639,629.563c-.362.211-.678.388-.938.533-.572.313-.889.47-.889.47s-.15-.451-.378-1.277c-1.256-4.519-4.854-20.268,1.167-34.734q.475-1.137,1.007-2.224c.3.695.569,1.4.827,2.126C968.829,609.649,963.987,625.66,962.639,629.563Z" transform="translate(-724.865 -469.507)" opacity="0.1"/>
  <path id="Path_70" data-name="Path 70" d="M992.834,534.1c-7.118,17.108-24.988,25.943-24.988,25.943s-6.331-18.9.787-36.012,24.988-25.943,24.988-25.943S999.952,516.995,992.834,534.1Z" transform="translate(-730.176 -398.357)" fill="#2356ce"/>
  <rect id="Rectangle_8" data-name="Rectangle 8" width="65.83" height="0.49" transform="translate(237.617 161.099) rotate(-67.243)" fill="#3f3d56"/>
  <path id="Path_71" data-name="Path 71" d="M294.214,743.172c0,2.294-13.2,4.393-35.017,6-3.967.292-8.22.568-12.728.827q-5.847.336-12.252.631-6.208.282-12.89.524c-14.071.512-29.625.879-46.149,1.063q-6.014.066-12.192.1-6.431.036-13.011.036c-79.662,0-144.24-4.113-144.24-9.189s64.578-9.189,144.24-9.189c34.295,0,65.792.764,90.546,2.035l2.706.14a.028.028,0,0,0,.017,0C274.425,737.848,294.214,740.362,294.214,743.172Z" transform="translate(-5.734 -576.456)" fill="#3f3d56"/>
  <path id="Path_72" data-name="Path 72" d="M294.214,743.172c0,2.294-13.2,4.393-35.017,6-3.967.292-8.22.568-12.728.827q-5.847.336-12.252.631-6.208.282-12.89.524c-14.071.512-29.625.879-46.149,1.063q-6.014.066-12.192.1-6.431.036-13.011.036c-79.662,0-144.24-4.113-144.24-9.189s64.578-9.189,144.24-9.189c34.295,0,65.792.764,90.546,2.035l2.706.14a.028.028,0,0,0,.017,0C274.425,737.848,294.214,740.362,294.214,743.172Z" transform="translate(-5.734 -576.456)" opacity="0.15"/>
  <path id="Path_73" data-name="Path 73" d="M309.176,741.213c0,1.918-12.3,3.672-32.645,5.02-3.7.243-7.663.473-11.865.691q-5.45.279-11.422.527-5.788.239-12.017.438c-13.119.429-27.621.735-43.026.889q-5.6.055-11.365.086-6,.033-12.13.032c-74.267,0-134.472-3.44-134.472-7.683s60.2-7.683,134.472-7.683c16.422,0,32.155.169,46.7.478h.037c13.759.292,26.457.708,37.673,1.225l2.523.115a.023.023,0,0,0,.017,0c5.138.25,9.944.519,14.374.808l.147.01C296.733,737.521,309.176,739.282,309.176,741.213Z" transform="translate(-31.782 -576.114)" fill="#3f3d56"/>
  <path id="Path_74" data-name="Path 74" d="M834.481,737.634c-1.82,11.836-13.3,7.869-27.187,7.869-14.673,0-26.653,4.427-27.4-10.023,13.759.292,26.457.708,37.673,1.225l2.523.115a.023.023,0,0,0,.017,0C825.245,737.075,830.052,737.344,834.481,737.634Z" transform="translate(-590.23 -577.586)" opacity="0.1"/>
  <path id="Path_75" data-name="Path 75" d="M288.091,699.7c0,4.267-2.536,5.757-5.666,5.757l-.217,0c-.145,0-.289-.01-.431-.02-2.824-.2-5.018-1.766-5.018-5.734,0-4.106,5.247-9.287,5.642-9.672h0l.023-.022S288.091,695.43,288.091,699.7Z" transform="translate(-210.361 -543.25)" fill="#2356ce"/>
  <path id="Path_76" data-name="Path 76" d="M292.025,704.8l2.072-2.9-2.077,3.213-.005.332c-.145,0-.289-.01-.431-.02l.223-4.269,0-.033,0-.006.021-.4-2.083-3.221,2.089,2.919.005.086.168-3.225-1.783-3.328,1.8,2.763.176-6.687v0l-.029,5.273,1.775-2.09-1.782,2.545-.047,2.888,1.658-2.771-1.664,3.2-.026,1.605,2.405-3.858-2.415,4.418Z" transform="translate(-220.166 -543.25)" fill="#3f3d56"/>
  <path id="Path_77" data-name="Path 77" d="M779.734,626.793c0-16.237,12.285-29.4,27.439-29.4s27.439,13.162,27.439,29.4-12.285,11.515-27.439,11.515S779.734,643.029,779.734,626.793Z" transform="translate(-590.109 -473.33)" fill="#3f3d56"/>
  <rect id="Rectangle_9" data-name="Rectangle 9" width="0.49" height="33.118" transform="translate(37.088 134.093)" fill="#3f3d56"/>
  <circle id="Ellipse_66" data-name="Ellipse 66" cx="4.683" cy="4.683" r="4.683" transform="translate(32.65 129.409)" fill="#3f3d56"/>
  <path id="Path_78" data-name="Path 78" d="M113.788,682.037s-.669-14.39-14.385-12.717" transform="translate(-76.455 -527.533)" fill="#3f3d56"/>
  <path id="Path_79" data-name="Path 79" d="M605.418,625.615c.122.432.259.862.4,1.288-.654-.643-1.3-1.3-1.95-1.942.262.082.524.163.771.26A4.675,4.675,0,0,1,605.418,625.615Zm-3.168-2.147c-3.855-3.352-8.322-5.947-12.272-9.2,2.157,1.061,4.256,2.3,6.337,3.484q3.7,2.11,7.5,4.056A6.113,6.113,0,0,1,602.249,623.467Zm1.649-8.44.185-.189c0,.476.005.922.011,1.326q-.518-.172-1.033-.353A9.138,9.138,0,0,0,603.9,615.027ZM569.941,624.1a31.708,31.708,0,0,0,4.114-5.868c1.53,2.674,4.017,4.6,6.133,6.841C576.779,624.625,573.365,624.253,569.941,624.1Z" transform="translate(-431.714 -486.073)" fill="url(#linear-gradient)"/>
  <path id="Path_80" data-name="Path 80" d="M88.091,725.7c0,4.267-2.536,5.757-5.666,5.757l-.217,0c-.145,0-.289-.01-.431-.02-2.824-.2-5.018-1.766-5.018-5.734,0-4.106,5.247-9.287,5.642-9.672h0l.023-.022S88.091,721.43,88.091,725.7Z" transform="translate(-59.359 -562.88)" fill="#2356ce"/>
  <path id="Path_81" data-name="Path 81" d="M92.025,730.8l2.072-2.9-2.077,3.213-.005.332c-.145,0-.289-.01-.431-.02l.223-4.269,0-.033,0-.006.021-.4L89.748,723.5l2.089,2.919.005.086.168-3.225-1.783-3.328,1.8,2.763.176-6.687v0L92.18,721.3l1.775-2.091-1.782,2.545-.047,2.888,1.658-2.772-1.664,3.2-.026,1.606,2.405-3.858-2.415,4.418Z" transform="translate(-69.165 -562.88)" fill="#3f3d56"/>
  <ellipse id="Ellipse_67" data-name="Ellipse 67" cx="2.205" cy="2.45" rx="2.205" ry="2.45" transform="translate(29.399 123.967)" fill="#2356ce"/>
  <path id="Path_82" data-name="Path 82" d="M739.427,466.354s8.888-1.968,9.868,5.872-4.72,9.32-4.72,9.32l-3.61.97L727,478.841l1.96-5.635Z" transform="translate(-550.294 -374.229)" fill="#2f2e41"/>
  <circle id="Ellipse_68" data-name="Ellipse 68" cx="12.01" cy="12.01" r="12.01" transform="translate(173.919 68.537)" fill="#2f2e41"/>
  <path id="Path_83" data-name="Path 83" d="M586.65,430.572l2.44.491,8.3,12.269-3.66.491Z" transform="translate(-442.924 -325.085)" fill="#2f2e41"/>
  <path id="Path_84" data-name="Path 84" d="M351.456,724.112a47.938,47.938,0,0,0,2.425,6.332,59.1,59.1,0,0,0,8.1-2.307,22.865,22.865,0,0,0-1.682-2.287,8.086,8.086,0,0,0-2.286-1.759,6.321,6.321,0,0,0-2.783-.041Q353.343,724.147,351.456,724.112Z" transform="translate(-266.756 -568.848)" fill="#fbbebe"/>
  <path id="Path_85" data-name="Path 85" d="M293.843,716.8c-1.375-.43-2.211-1.815-2.771-3.149a10.212,10.212,0,0,0-2.072-3.77,1.239,1.239,0,0,0-.935.706c-.2.356-.321.757-.553,1.093-.443.64-1.22.949-1.777,1.491-.583.568-.9,1.373-1.506,1.919a6.04,6.04,0,0,1-2.826,1.084,18.122,18.122,0,0,0-4.422,1.639,7.43,7.43,0,0,1-1.638.734,6.155,6.155,0,0,1-1.916.064l-4.4-.313a3.437,3.437,0,0,0-1.174.051,2.136,2.136,0,0,0-1.4,2.205,3.437,3.437,0,0,0,1.392,2.367,9.267,9.267,0,0,0,2.505,1.269,74.252,74.252,0,0,0,11.8,3.37l0,.871a20.373,20.373,0,0,0,8.98,2.091,1.4,1.4,0,0,0,.672-.117,1.444,1.444,0,0,0,.566-.862,34.906,34.906,0,0,0,1.835-9.564,7.26,7.26,0,0,0-.189-2.464c-.24-.792.585-.459-.178-.769" transform="translate(-202.576 -558.261)" fill="#2f2e41"/>
  <path id="Path_86" data-name="Path 86" d="M455.817,659.742c-13.043.781-25.935-3.037-39-3.445a19.357,19.357,0,0,0-4.85.309,24.094,24.094,0,0,0-4.8,1.861c-7,3.259-14.251,5.958-21.489,8.654l-8.314,3.1a12.8,12.8,0,0,1-5.151,1.139c-.793-.048-1.766-.168-2.212.492-1.353,2-.713,4.948.18,7.2.29.73.781,1.518,1.558,1.6a4.541,4.541,0,0,0,1.588-.4c1.513-.405,3.022.613,4.579.778,1.924.2,3.711-.891,5.527-1.563,3.012-1.113,6.306-1.078,9.471-1.606,5.309-.884,10.229-3.349,14.828-6.157a17.354,17.354,0,0,1,5.535-2.606,15.2,15.2,0,0,1,6.958.788,160.688,160.688,0,0,1,15.951,5.432,73.642,73.642,0,0,0,8.334,3.039,30.134,30.134,0,0,0,18.678-1.089c2.088-.825,4.356-2.284,4.476-4.536.068-1.284-.928-2.416-1.593-3.514-.427-.7-.854-1.409-1.319-2.089C462.509,663.835,459.779,659.5,455.817,659.742Z" transform="translate(-280.173 -517.785)" fill="#2f2e41"/>
  <path id="Path_87" data-name="Path 87" d="M455.817,659.742c-13.043.781-25.935-3.037-39-3.445a19.357,19.357,0,0,0-4.85.309,24.094,24.094,0,0,0-4.8,1.861c-7,3.259-14.251,5.958-21.489,8.654l-8.314,3.1a12.8,12.8,0,0,1-5.151,1.139c-.793-.048-1.766-.168-2.212.492-1.353,2-.713,4.948.18,7.2.29.73.781,1.518,1.558,1.6a4.541,4.541,0,0,0,1.588-.4c1.513-.405,3.022.613,4.579.778,1.924.2,3.711-.891,5.527-1.563,3.012-1.113,6.306-1.078,9.471-1.606,5.309-.884,10.229-3.349,14.828-6.157a17.354,17.354,0,0,1,5.535-2.606,15.2,15.2,0,0,1,6.958.788,160.688,160.688,0,0,1,15.951,5.432,73.642,73.642,0,0,0,8.334,3.039,30.134,30.134,0,0,0,18.678-1.089c2.088-.825,4.356-2.284,4.476-4.536.068-1.284-.928-2.416-1.593-3.514-.427-.7-.854-1.409-1.319-2.089C462.509,663.835,459.779,659.5,455.817,659.742Z" transform="translate(-280.173 -517.785)" opacity="0.1"/>
  <path id="Path_88" data-name="Path 88" d="M453.673,710.631q3.063,1.045,6.179,1.922c1.163-1.909,3.338-3.238,3.834-5.421a.477.477,0,0,0,0-.292.492.492,0,0,0-.234-.209,11.506,11.506,0,0,0-4.838-1.418c-1.341-.085-1.953,1.315-2.56,2.3C455.808,707.91,454.22,710.818,453.673,710.631Z" transform="translate(-343.931 -554.732)" fill="#fbbebe"/>
  <path id="Path_89" data-name="Path 89" d="M403.2,712.045a4.45,4.45,0,0,1-3-1.974c-.288-.5-.6-1.18-1.171-1.142-.534.035-.78.673-.9,1.2a34.059,34.059,0,0,1-1.684,5.8,10.861,10.861,0,0,1-3.61,4.741c-.757.526-1.6.919-2.34,1.47a15.667,15.667,0,0,1-1.978,1.5A11.147,11.147,0,0,1,387,724.2a10.273,10.273,0,0,0-2.172,1.057,4.37,4.37,0,0,0-1.479,1.413,2.073,2.073,0,0,0-.122,1.978,2.14,2.14,0,0,0,1.448.991,6.2,6.2,0,0,0,1.8.045c2.378-.175,4.754-.387,7.129-.6a20.447,20.447,0,0,0,2.988-.416c.52-.125,1.03-.292,1.548-.425a12.77,12.77,0,0,1,2.716-.4,2.277,2.277,0,0,1,.792.072c.55.18.941.727,1.509.838a2.4,2.4,0,0,0,1.074-.144,25.019,25.019,0,0,1,5.281-.551c.78-.042,1.694-.19,2.052-.889.446-.871-.294-1.845-.589-2.779a8.5,8.5,0,0,1-.245-1.822,11.158,11.158,0,0,0-1.31-4.333c-.605-1.112-1.432-2.341-1.007-3.534a3.191,3.191,0,0,0,.4-1.211C408.689,711.615,404.293,712.274,403.2,712.045Z" transform="translate(-290.596 -557.539)" fill="#2f2e41"/>
  <path id="Path_90" data-name="Path 90" d="M608.845,549.613a10.208,10.208,0,0,1-5.2-5.162c-.218-.5-.4-1.012-.607-1.512a11.489,11.489,0,0,0-3.106-4.313,1.5,1.5,0,0,0-1.153-.488,1.241,1.241,0,0,0-.848.908,3.7,3.7,0,0,0-.086,1.394,24.961,24.961,0,0,0,.565,3.26l.632,2.88a5.517,5.517,0,0,0,.393,1.286,4.528,4.528,0,0,0,1.061,1.269q.866.8,1.76,1.553a4.919,4.919,0,0,0,3.052,1.357,16.745,16.745,0,0,1,7.41,2.863c-.024-.019-.009-1.932-.047-2.151a2.828,2.828,0,0,0-.555-1.546C611.274,550.331,609.878,550.072,608.845,549.613Z" transform="translate(-452.761 -428.582)" fill="#fbbebe"/>
  <path id="Path_91" data-name="Path 91" d="M608.845,549.613a10.208,10.208,0,0,1-5.2-5.162c-.218-.5-.4-1.012-.607-1.512a11.489,11.489,0,0,0-3.106-4.313,1.5,1.5,0,0,0-1.153-.488,1.241,1.241,0,0,0-.848.908,3.7,3.7,0,0,0-.086,1.394,24.961,24.961,0,0,0,.565,3.26l.632,2.88a5.517,5.517,0,0,0,.393,1.286,4.528,4.528,0,0,0,1.061,1.269q.866.8,1.76,1.553a4.919,4.919,0,0,0,3.052,1.357,16.745,16.745,0,0,1,7.41,2.863c-.024-.019-.009-1.932-.047-2.151a2.828,2.828,0,0,0-.555-1.546C611.274,550.331,609.878,550.072,608.845,549.613Z" transform="translate(-452.761 -428.582)" opacity="0.1"/>
  <ellipse id="Ellipse_69" data-name="Ellipse 69" cx="3.172" cy="3.19" rx="3.172" ry="3.19" transform="translate(179.476 92.605)" fill="#2f2e41"/>
  <path id="Path_92" data-name="Path 92" d="M675.6,473.939a2.59,2.59,0,0,0-3.366,1.529,16.91,16.91,0,0,0-1.651,3.886c-.283,1.164-.33,2.382-.681,3.527-.651,2.125-2.317,3.918-2.508,6.134-.085.991.081,2.152-.643,2.831a4.25,4.25,0,0,1-.57.4,4.312,4.312,0,0,0-1.249,1.284,4.138,4.138,0,0,1-.887,1.226c-.645.478-1.716.429-2.034,1.169-.327.76.5,1.606.31,2.411-.156.656-.888.956-1.391,1.4A4.931,4.931,0,0,0,659.726,502a7.481,7.481,0,0,1-6.071-1.514,19.133,19.133,0,0,1,.943,6.944,2.868,2.868,0,0,1-.557,2.154,37.8,37.8,0,0,1,7.453,1.3,5.133,5.133,0,0,0,3.251-.006,5.3,5.3,0,0,0,1.489-1.184c1.341-1.36,2.747-2.843,3.075-4.729a25.433,25.433,0,0,0,.054-3.213,18.209,18.209,0,0,1,.814-3.894,45.945,45.945,0,0,0,1.425-8.018c.146-1.672,1.59-3.018,2.35-4.512,1.435-2.821,2.9-5.759,3.01-8.925C677,475.335,676.65,474.055,675.6,473.939Z" transform="translate(-494.919 -380.071)" fill="#2f2e41"/>
  <path id="Path_93" data-name="Path 93" d="M675.6,473.939a2.59,2.59,0,0,0-3.366,1.529,16.91,16.91,0,0,0-1.651,3.886c-.283,1.164-.33,2.382-.681,3.527-.651,2.125-2.317,3.918-2.508,6.134-.085.991.081,2.152-.643,2.831a4.25,4.25,0,0,1-.57.4,4.312,4.312,0,0,0-1.249,1.284,4.138,4.138,0,0,1-.887,1.226c-.645.478-1.716.429-2.034,1.169-.327.76.5,1.606.31,2.411-.156.656-.888.956-1.391,1.4A4.931,4.931,0,0,0,659.726,502a7.481,7.481,0,0,1-6.071-1.514,19.133,19.133,0,0,1,.943,6.944,2.868,2.868,0,0,1-.557,2.154,37.8,37.8,0,0,1,7.453,1.3,5.133,5.133,0,0,0,3.251-.006,5.3,5.3,0,0,0,1.489-1.184c1.341-1.36,2.747-2.843,3.075-4.729a25.433,25.433,0,0,0,.054-3.213,18.209,18.209,0,0,1,.814-3.894,45.945,45.945,0,0,0,1.425-8.018c.146-1.672,1.59-3.018,2.35-4.512,1.435-2.821,2.9-5.759,3.01-8.925C677,475.335,676.65,474.055,675.6,473.939Z" transform="translate(-494.919 -380.071)" opacity="0.1"/>
  <path id="Path_94" data-name="Path 94" d="M530.216,598.909c-2.717-1.292-4.7-3.7-6.9-5.765-4.193-3.937-9.321-6.725-13.73-10.416-2.922-2.447-5.536-5.3-8.747-7.345a21.774,21.774,0,0,0-9.368-3.283,2.637,2.637,0,0,0-1.147.057,2.717,2.717,0,0,0-1.066.843,33.367,33.367,0,0,0-3.776,5.193c-5.588,9.486-13.526,17.463-20.1,26.285a1.18,1.18,0,0,0-.079,1.593l1.338,2.621c.749,1.467,1.948,3.175,3.562,2.884a3.892,3.892,0,0,0,1.868-1.195l6.005-5.741,6.3-6.019c3.689-3.526,7.441-7.135,9.846-11.646,1.88,3.26,5.214,5.393,7.5,8.378.87,1.135,1.581,2.383,2.358,3.585,1.245,1.926,2.662,3.734,4.076,5.539l7.222,9.219a14.063,14.063,0,0,0,3.344,3.392,12.836,12.836,0,0,0,5.8,1.549,76.825,76.825,0,0,0,8.161.3,14.147,14.147,0,0,0,6.081-1.094,5.536,5.536,0,0,0,3.3-4.9,7.228,7.228,0,0,0-1.041-3.055C538.44,605.149,535.069,601.217,530.216,598.909Z" transform="translate(-352.503 -454.205)" fill="#2f2e41"/>
  <ellipse id="Ellipse_70" data-name="Ellipse 70" cx="2.44" cy="2.454" rx="2.44" ry="2.454" transform="translate(182.16 95.55)" fill="#2f2e41"/>
  <path id="Path_95" data-name="Path 95" d="M746.719,459.846a4.652,4.652,0,0,1,.268,3.521,13.774,13.774,0,0,1-1.571,3.252,16.152,16.152,0,0,1-2.04,2.911c3.767.18,7.418-1.3,10.742-3.087,2.674-1.44,5.343-3.218,6.77-5.91a3.109,3.109,0,0,1-2.493-.461,9.276,9.276,0,0,1-1.91-1.779l-1.891-2.127a8.486,8.486,0,0,1-1.163-1.527,4.291,4.291,0,0,1-.5-2.468,14.105,14.105,0,0,1-2.5,2.076c-1.351.879-2.839,1.517-4.193,2.391-.48.31-1.547.808-1.273,1.436C745.231,458.685,746.338,459.174,746.719,459.846Z" transform="translate(-562.658 -363.686)" fill="#fbbebe"/>
  <path id="Path_96" data-name="Path 96" d="M746.719,459.846a4.652,4.652,0,0,1,.268,3.521,13.774,13.774,0,0,1-1.571,3.252,16.152,16.152,0,0,1-2.04,2.911c3.767.18,7.418-1.3,10.742-3.087,2.674-1.44,5.343-3.218,6.77-5.91a3.109,3.109,0,0,1-2.493-.461,9.276,9.276,0,0,1-1.91-1.779l-1.891-2.127a8.486,8.486,0,0,1-1.163-1.527,4.291,4.291,0,0,1-.5-2.468,14.105,14.105,0,0,1-2.5,2.076c-1.351.879-2.839,1.517-4.193,2.391-.48.31-1.547.808-1.273,1.436C745.231,458.685,746.338,459.174,746.719,459.846Z" transform="translate(-562.658 -363.686)" opacity="0.1"/>
  <path id="Path_97" data-name="Path 97" d="M711.424,483.659a3.173,3.173,0,0,0,0,3.681c.107.135.5.973.676.98a.64.64,0,0,0,.43-.217,29.77,29.77,0,0,0,2.389-2.847,5.284,5.284,0,0,1,3.039-2c1.474-.23,2.9.552,4.188,1.305a4,4,0,0,1,1.43,1.168,3.825,3.825,0,0,1,.47,1.6,75.273,75.273,0,0,1,.425,10.146,39.286,39.286,0,0,1-.48,7.319c-.239,1.243-.6,2.462-.769,3.716a24.939,24.939,0,0,0-.152,3.334l0,4.662a12,12,0,0,0,.181,2.557,31.077,31.077,0,0,0,1.028,2.958,19.521,19.521,0,0,1,.681,3.5l.638,4.828c.2,1.52.349,3.184-.57,4.407-.416.553-.962,1-1.383,1.545-1.578,2.055-1.072,4.988-1.73,7.5a9.4,9.4,0,0,1-3.061,4.692,5.076,5.076,0,0,1-4.036,1.443c-1.96-.364-3.138-2.408-3.672-4.339s-.729-4.033-1.887-5.664a14.846,14.846,0,0,0-3.735-3.121,6.438,6.438,0,0,1-2.907-3.787c-.126-.7-.047-1.428-.122-2.139a5.061,5.061,0,0,0-3.123-4.1c-1-.39-2.243-.53-2.808-1.45a6.8,6.8,0,0,0,2.938-3.943,20.317,20.317,0,0,0,.715-4.979l.335-5.61c.15-2.507.218-4.992,1.322-7.245.494-1.007,1.108-1.95,1.621-2.947a33.152,33.152,0,0,0,1.737-4.324c.8-2.3,1.6-4.6,2.314-6.925a13.8,13.8,0,0,1,1.273-3.227C709.42,485.142,710.289,483.872,711.424,483.659Z" transform="translate(-527.312 -387.127)" fill="#2356ce"/>
  <path id="Path_98" data-name="Path 98" d="M705.9,517.2l1.484.054.316-2.243a4.7,4.7,0,0,1,.314-1.308,8.079,8.079,0,0,1,.853-1.25c1.461-2.064,1.355-4.8,1.717-7.312a36.469,36.469,0,0,1,3.261-9.555l2.881-6.423a6.962,6.962,0,0,0,.8-3.545c.026-.993.32-4.606.345-5.6.009-.367-.81-.163-.976-.491-.362-.713-.856,1.221-1.531,1.645a3.769,3.769,0,0,0-1.334,1.94c-.621,1.618-1,3.319-1.579,4.953a10.2,10.2,0,0,1-2.69,4.376c-.592.517-1.273.927-1.832,1.479-1.793,1.773-1.967,4.572-2.03,7.1C705.86,502.522,705.57,517.2,705.9,517.2Z" transform="translate(-534.246 -384.222)" fill="#2f2e41"/>
  <path id="Path_99" data-name="Path 99" d="M751.851,473.554c-1.442.567-2.232,2.13-2.638,3.633a18.182,18.182,0,0,1-1.345,4.451c-1.81,3.151-6.426,4.069-7.7,7.474a13.567,13.567,0,0,0-.512,3.522c-.232,2.44-1.034,4.8-1.271,7.235a31.576,31.576,0,0,0,.133,5.686l1.613,19.241a25.471,25.471,0,0,1-.483,8.461,8.112,8.112,0,0,0,4.847-.8c1.515-.691,2.9-1.639,4.357-2.444,2.508-1.384,5.274-2.364,7.47-4.207a4.344,4.344,0,0,0,1.006-1.112,9.349,9.349,0,0,0,.686-2.536,13.913,13.913,0,0,1,.723-1.993,59.346,59.346,0,0,0,2.1-5.932,32.784,32.784,0,0,0,.965-4.074c.176-1.1.271-2.2.366-3.311a19.814,19.814,0,0,1,1.024-5.086,40.741,40.741,0,0,0,2.356-12.187,6.16,6.16,0,0,0-.121-1.794,9.773,9.773,0,0,0-.976-2.035c-.67-1.263-1.073-2.653-1.706-3.935a19.3,19.3,0,0,0-6.6-6.936C754.843,473.971,753.323,472.975,751.851,473.554Z" transform="translate(-558.826 -379.701)" fill="#2f2e41"/>
  <path id="Path_100" data-name="Path 100" d="M601.871,582.353a11.542,11.542,0,0,1-3.073-2.335c-.4-.472-.735-1-1.144-1.467a7.541,7.541,0,0,0-3.865-2.2,18.957,18.957,0,0,0-4.479-.436,8.2,8.2,0,0,0-2.978.361,3,3,0,0,0-1.973,2.117,3.5,3.5,0,0,0,1.5,3.131,7.235,7.235,0,0,0,3,1.457,24.075,24.075,0,0,0,2.713.318c5.342.559,10.107,3.467,14.788,6.114q6.167,3.488,12.573,6.521a25.088,25.088,0,0,0,.211-3.859c-.022-.963-.069-2.432-.979-3-1.06-.659-2.806-.81-4-1.2a64.231,64.231,0,0,1-8.046-3.255Q603.956,583.567,601.871,582.353Z" transform="translate(-442.573 -457.112)" fill="#fbbebe"/>
  <ellipse id="Ellipse_71" data-name="Ellipse 71" cx="9.517" cy="9.57" rx="9.517" ry="9.57" transform="translate(173.131 75.92)" fill="#fbbebe"/>
  <path id="Path_101" data-name="Path 101" d="M732.446,514.62a15.341,15.341,0,0,0-1.847,3.444c-1.175,2.42-3.018,4.5-3.941,7.025-.974,2.667-.941,5.84-2.85,7.934a2.749,2.749,0,0,0-.828,1.2,5.942,5.942,0,0,1-.1.871c-.274.761-1.519.8-1.752,1.574-.068.227-.03.478-.114.7-.191.5-.853.578-1.3.878-.924.627-.737,2.084-1.4,2.987a2.507,2.507,0,0,1-2.378.833,8.557,8.557,0,0,1-2.468-.922,2.245,2.245,0,0,0-.888-.279,1.863,1.863,0,0,0-1.025.35,6.331,6.331,0,0,0-2.571,5.423,17.775,17.775,0,0,0,1.467,6.063,2.61,2.61,0,0,0,.485.9,2.123,2.123,0,0,0,2.372.174,10.753,10.753,0,0,1,2.31-1.033c1.473-.267,2.912.745,4.406.662a6.155,6.155,0,0,0,2.973-1.313,16.358,16.358,0,0,0,4-3.384c.654-.854,1.132-1.827,1.7-2.74a31.65,31.65,0,0,1,2.4-3.21l5.488-6.717a10.858,10.858,0,0,0,2.628-5.107,23.829,23.829,0,0,0,1.137-5.464,21.743,21.743,0,0,0-.4-4.58,15.942,15.942,0,0,0-1.182-4.359C737.59,514.055,734.688,512.006,732.446,514.62Z" transform="translate(-536.7 -409.917)" fill="#2f2e41"/>
  <circle id="Ellipse_72" data-name="Ellipse 72" cx="12.01" cy="12.01" r="12.01" transform="translate(186.93 52.723)" fill="#2f2e41"/>
  <path id="Path_102" data-name="Path 102" d="M802.886,361.207a12.011,12.011,0,0,1-18.547-6.306,12.011,12.011,0,1,0,23.429-4.925A12.006,12.006,0,0,1,802.886,361.207Z" transform="translate(-593.585 -286.528)" fill="#2f2e41"/>
  <circle id="Ellipse_73" data-name="Ellipse 73" cx="8.808" cy="8.808" r="8.808" transform="translate(180.325 73.742)" fill="#2f2e41"/>
  <ellipse id="Ellipse_74" data-name="Ellipse 74" cx="7.807" cy="6.105" rx="7.807" ry="6.105" transform="translate(173.919 73.141)" fill="#2f2e41"/>
  <ellipse id="Ellipse_75" data-name="Ellipse 75" cx="1.225" cy="1.837" rx="1.225" ry="1.837" transform="matrix(0.776, -0.631, 0.631, 0.776, 181.455, 88.158)" fill="#fbbebe"/>
  <path id="Path_103" data-name="Path 103" d="M685.091,741.7c0,4.267-2.536,5.757-5.666,5.757l-.217,0c-.145,0-.289-.01-.431-.02-2.824-.2-5.018-1.766-5.018-5.734,0-4.106,5.247-9.287,5.642-9.672h0l.023-.022S685.091,737.43,685.091,741.7Z" transform="translate(-510.098 -574.96)" fill="#2356ce"/>
  <path id="Path_104" data-name="Path 104" d="M689.025,746.8l2.072-2.9-2.077,3.213-.005.332c-.145,0-.289-.01-.431-.02l.223-4.269,0-.033,0-.006.021-.4-2.083-3.221,2.089,2.919.005.086.168-3.225-1.783-3.328,1.8,2.763.176-6.687v0l-.029,5.273,1.775-2.09-1.782,2.545-.047,2.888,1.658-2.771-1.664,3.2-.026,1.606,2.405-3.858-2.415,4.418Z" transform="translate(-519.904 -574.96)" fill="#3f3d56"/>
</svg>
