<svg xmlns="http://www.w3.org/2000/svg" width="249.766" height="206.629" viewBox="0 0 249.766 206.629">
  <g id="undraw_in_no_time_6igu" transform="translate(0)">
    <path id="Path_105" data-name="Path 105" d="M857.421,629.392a39.421,39.421,0,0,0,52.477-58.57Z" transform="translate(-671.221 -431.167)" fill="#f2f2f2"/>
    <path id="Path_106" data-name="Path 106" d="M379.709,287.049l-48.717,53.705a39.565,39.565,0,0,0,11.7,14.727l52.477-58.57a39.441,39.441,0,0,0-15.457-9.862Z" transform="translate(-289.918 -225.625)" fill="#f2f2f2"/>
    <path id="Path_107" data-name="Path 107" d="M439.638,204.642v-31.4H414v31.307A39.592,39.592,0,0,1,439.638,204.642Z" transform="translate(-350.043 -143.189)" fill="#2356ce"/>
    <path id="Path_108" data-name="Path 108" d="M414,555.422v32.134h25.638V555.325A39.591,39.591,0,0,1,414,555.422Z" transform="translate(-350.043 -419.942)" fill="#2356ce"/>
    <path id="Path_109" data-name="Path 109" d="M357.06,356.858a39.56,39.56,0,1,1,39.56-39.56A39.6,39.6,0,0,1,357.06,356.858Zm0-78.845A39.284,39.284,0,1,0,396.344,317.3,39.329,39.329,0,0,0,357.06,278.013Z" transform="translate(-280.146 -218.88)"/>
    <path id="Path_110" data-name="Path 110" d="M360,348.082a27.844,27.844,0,0,0,27.844,27.844V320.238A27.844,27.844,0,0,0,360,348.082Z" transform="translate(-310.929 -249.664)" fill="#575a89"/>
    <path id="Path_111" data-name="Path 111" d="M461,320.238v55.687a27.844,27.844,0,0,0,0-55.687Z" transform="translate(-384.086 -249.664)" fill="#2356ce"/>
    <ellipse id="Ellipse_76" data-name="Ellipse 76" cx="4.246" cy="3.775" rx="4.246" ry="3.775" transform="translate(72.661 96.253)" fill="#2f2e41"/>
    <path id="Path_112" data-name="Path 112" d="M273.923,310.658l.962,7.628.962,7.628H272l.962-7.628Z" transform="translate(-197.015 -225.016)" fill="#2f2e41"/>
    <path id="Path_113" data-name="Path 113" d="M296.545,359.492,284,359.961l-12.546.469.007-1.1.007-1.1,12.54.627Z" transform="translate(-196.618 -259.479)" fill="#2f2e41"/>
    <path id="Path_114" data-name="Path 114" d="M603.369,400.643c-.638,0-.9-.439-1.222-.994-.082-.139-.17-.289-.272-.448l.232-.149c.1.162.195.316.278.457.325.553.5.858.985.858,1.6,0,2.895-2.659,2.895-5.927s-1.3-5.927-2.895-5.927c-.922,0-1.562.569-2.078,1.844l-.256-.1c.563-1.394,1.283-2.016,2.333-2.016,1.748,0,3.17,2.783,3.17,6.2S605.117,400.643,603.369,400.643Z" transform="translate(-485.517 -298.918)"/>
    <ellipse id="Ellipse_77" data-name="Ellipse 77" cx="37.274" cy="1.415" rx="37.274" ry="1.415" transform="translate(43.408 194.393)" fill="#f2f2f2"/>
    <circle id="Ellipse_78" data-name="Ellipse 78" cx="5.662" cy="5.662" r="5.662" transform="translate(207.604 38.69)" fill="#f2f2f2"/>
    <path id="Path_115" data-name="Path 115" d="M221.422,64.238A39.437,39.437,0,0,0,185.581,120.1L234.3,66.391A39.363,39.363,0,0,0,221.422,64.238Z" transform="translate(-182 -64.238)" fill="#f2f2f2"/>
    <circle id="Ellipse_79" data-name="Ellipse 79" cx="8.612" cy="8.612" r="8.612" transform="translate(161.796 56.024)" fill="#2f2e41"/>
    <path id="Path_116" data-name="Path 116" d="M747.584,490.718s6.875,17.37,7.6,17.37,1.809-6.514,1.809-6.514l-4.342-12.3Z" transform="translate(-591.664 -372.098)" fill="#ffb9b9"/>
    <path id="Path_117" data-name="Path 117" d="M784.337,316.557s1.809,7.6,1.086,9.047,1.447,3.619,1.447,3.619h5.066l3.619-5.79.724-2.533s-2.171-5.79-1.809-6.514S784.337,316.557,784.337,316.557Z" transform="translate(-618.285 -245.341)" fill="#ffb9b9"/>
    <path id="Path_118" data-name="Path 118" d="M784.337,316.557s1.809,7.6,1.086,9.047,1.447,3.619,1.447,3.619h5.066l3.619-5.79.724-2.533s-2.171-5.79-1.809-6.514S784.337,316.557,784.337,316.557Z" transform="translate(-618.285 -245.341)" opacity="0.1"/>
    <path id="Path_119" data-name="Path 119" d="M675.845,704.624V708.6l4.7,1.086.362-5.066Z" transform="translate(-489.529 -510.373)" fill="#575a89"/>
    <path id="Path_120" data-name="Path 120" d="M778.693,505.519s-5.066,9.047-3.257,13.751,8.685,27.864,8.685,27.864,3.981,13.027,3.981,13.751,3.257,16.646,4.342,17.008,10.856,1.448,11.218.362.724-6.875-.362-7.961-6.875-34.739-6.875-34.739l-.724-11.218,9.047,27.864s2.533,16.646,3.619,17.732-2.171,2.171-1.086,3.257,5.066,3.981,4.7,5.066,8.685,1.086,9.77.362.724-11.942.724-11.942l-5.066-15.2-5.79-36.91s-1.809-10.856-3.257-10.856S778.693,505.519,778.693,505.519Z" transform="translate(-611.555 -382.556)" fill="#2f2e41"/>
    <path id="Path_121" data-name="Path 121" d="M825.2,772.955s-2.895-2.533-4.342-1.809-6.152,7.6-7.6,7.237-3.619,3.894,0,4.256a54.275,54.275,0,0,0,9.409-.362,27.952,27.952,0,0,0,3.619.362c1.447,0,4.7.362,4.7,0s-.724-8.6-1.086-8.6S825.566,774.04,825.2,772.955Z" transform="translate(-637.802 -576.171)" fill="#2f2e41"/>
    <path id="Path_122" data-name="Path 122" d="M918.765,768.017s-3.619-.724-3.981,0a32.622,32.622,0,0,0-1.809,3.257c0,.362.724,4.7.724,5.066a5.505,5.505,0,0,0,1.448,2.171,1.277,1.277,0,0,1,.362,1.448s9.409,1.086,9.409-.362a12.051,12.051,0,0,0-1.809-5.428C922.384,773.445,920.936,768.379,918.765,768.017Z" transform="translate(-711.46 -573.766)" fill="#2f2e41"/>
    <circle id="Ellipse_80" data-name="Ellipse 80" cx="7.599" cy="7.599" r="7.599" transform="translate(162.795 59.274)" fill="#ffb9b9"/>
    <path id="Path_123" data-name="Path 123" d="M783.883,350.757s4.342,2.533,6.875-1.447,10.494,7.961,10.494,7.961l2.171,36.91a73.9,73.9,0,0,0-10.856,2.171c-6.875,1.809-10.132-2.533-10.132-2.533l-.362-20.988.724-9.77-1.086-7.961.724-4.7Z" transform="translate(-616.384 -270.133)" fill="#2356ce"/>
    <path id="Path_124" data-name="Path 124" d="M745.5,373.759s-2.895.724-3.619,5.79-2.171,20.264-2.171,20.264l1.809,9.047s5.066-3.981,6.875-2.171l-1.086-5.428L748.393,398l-3.257-14.113Z" transform="translate(-585.959 -288.43)" fill="#2356ce"/>
    <path id="Path_125" data-name="Path 125" d="M765.055,334.38s-.684,0-.684,2.533-6.875,6.152-6.875,6.152-.724,1.086-.724,3.981,0,9.77.724,11.942,1.809,9.409,2.171,10.132.362,3.981-.362,4.7,1.809,5.066,2.533,5.428-2.533,9.77-.724,10.132,5.066-4.342,6.152-6.875.362-37.634,0-40.167A65.517,65.517,0,0,0,765.055,334.38Z" transform="translate(-598.319 -259.907)" fill="#575a89"/>
    <path id="Path_126" data-name="Path 126" d="M814.118,323.834s-.271-1.652,1.538-.2a6.48,6.48,0,0,1,2.171,2.533s9.409,0,9.77,1.086-.216,10.324-.216,10.324l4.755,17.681s6.678,20.485,7.4,21.209-5.79-3.257-9.409-.362-10.132,4.342-10.856,2.533-8.685-43.786-8.685-43.786,0-6.875,1.086-7.6S814.118,323.834,814.118,323.834Z" transform="translate(-637.301 -251.691)" fill="#575a89"/>
    <path id="Path_127" data-name="Path 127" d="M888.532,449.892l-1.447,16.646-.362,1.447,5.428,7.237s1.086-3.981.724-5.428,1.809-17.731,1.809-17.731Z" transform="translate(-692.445 -343.575)" fill="#ffb9b9"/>
    <path id="Path_128" data-name="Path 128" d="M776.953,268.4s-1.758-4.571.791-6.066l.7,2.022s6.417-3.868,8.088-2.989l-1.582,2.11s7.472,0,8,2.9l-2.637.088s2.813,1.846,2.9,4.835l-5.626.352,2.725,1.582s-10.2,1.407-12.659-2.637Z" transform="translate(-612.509 -206.929)" fill="#2f2e41"/>
    <path id="Path_129" data-name="Path 129" d="M772.982,281.073s2.026,4.052,4.728,3.039,0-4.728,0-4.728l-1.8-.9Z" transform="translate(-610.061 -219.421)" fill="#2f2e41"/>
    <rect id="Rectangle_12" data-name="Rectangle 12" width="78.844" height="0.276" transform="translate(149.142 206.346)"/>
    <path id="Path_130" data-name="Path 130" d="M869.659,340.943a5.675,5.675,0,0,1,3.619,2.895c1.448,2.533,8.685,19.179,9.047,19.9s.362,10.494.362,10.494-5.066-2.895-7.237-1.086l-.362-4.342-4.7-16.646-.724-5.428Z" transform="translate(-680.085 -264.661)" fill="#2356ce"/>
  </g>
</svg>
