<svg id="_Layer_" data-name="&lt;Layer&gt;" xmlns="http://www.w3.org/2000/svg" viewBox="0 0 3369.91 2713.06"><rect width="3369.91" height="2713.06" fill="#fff"/><polygon points="2057.6 2418.48 283.02 2419.05 283.02 1456 2057.6 1456 2057.6 2418.48" fill="#fff"/><path d="M283,2421.13a2.07,2.07,0,0,1-2.08-2.08V1456a2.08,2.08,0,0,1,2.08-2.08H2057.6a2.09,2.09,0,0,1,2.09,2.08v962.49a2.09,2.09,0,0,1-2.09,2.08Zm1774.58-2.64h0ZM285.1,1458.09V2417l1770.42-.57V1458.09Z" transform="translate(0 0)" fill="#404040"/><rect x="309.01" y="673.55" width="1722.61" height="791.02" fill="#fff"/><path d="M2029.53,675.63v786.85H311.09V675.63H2029.53m4.17-4.16H306.93v795.18H2033.7V671.47Z" transform="translate(0 0)" fill="#404040"/><path d="M825.76,1081.42c-2.35,3.61-6.73,5.38-11,6s-8.6.25-12.89.67c-15.89,1.57-29.12,13.87-36.23,28.17s-11.87,38.2-13.86,54l101.88,16.62,6.05-114.41c-16.41,1.84-29.56-3.85-34.08-7.5C827.06,1070.35,829.11,1076.3,825.76,1081.42Z" transform="translate(0 0)" fill="#404040"/><path d="M988.66,1176.9c-20-18.29-59.32-23.34-59.32-23.34l-93.5-13.94s-157.38-18.65-206,292.43l455-6.49C1084.64,1283.21,1025.33,1210.5,988.66,1176.9Z" transform="translate(0 0)" fill="#fff"/><path d="M629.87,1434.13a2.08,2.08,0,0,1-1.58-.72,2.06,2.06,0,0,1-.48-1.68c13.91-89.08,46.38-207.22,122-264.21,23.78-17.91,45.89-25.11,60.26-28,15.65-3.14,25.59-2,26-2l93.57,13.94c1.59.21,40.2,5.34,60.42,23.87h0c63.22,57.92,96.7,144.44,96.83,250.19a2.07,2.07,0,0,1-2.05,2.08l-454.95,6.49ZM831,1141.51c-11.5,0-43.53,2.72-79,29.56-40.81,30.88-94.6,100.86-119.72,258.86l450.42-6.42c-.56-103.63-33.55-188.33-95.47-245.07h0c-19.24-17.63-57.8-22.76-58.18-22.81l-93.55-14C835.46,1141.68,833.88,1141.51,831,1141.51Z" transform="translate(0 0)" fill="#404040"/><path d="M745.44,1416.28a2.08,2.08,0,0,1-2.07-2l-4.19-73.59a2.08,2.08,0,0,1,4.16-.23l4.19,73.59a2.09,2.09,0,0,1-2,2.19Z" transform="translate(0 0)" fill="#404040"/><path d="M986.85,1434.13a2.08,2.08,0,0,1-2.05-1.75l-23.27-146.27a2.08,2.08,0,1,1,4.11-.66l23.27,146.27a2.09,2.09,0,0,1-1.73,2.39Z" transform="translate(0 0)" fill="#404040"/><path d="M929.34,1153.56l4.43-75.25s36.27,9.86,36.24-23.56-33.94-23.38-33.94-23.38,24.7-59.71,3.85-78.17S842.5,924.11,825,947s-22,69-22,69l-1.62,58.78a60.29,60.29,0,0,0,3.09,21.29c4.24,12.36,14,29,36,36.24L862.75,1200Z" transform="translate(0 0)" fill="#fff"/><path d="M862.75,1202a2.1,2.1,0,0,1-2-1.43l-22.06-66.68c-22-7.68-31.9-24.42-36.29-37.2a62.47,62.47,0,0,1-3.21-22l1.62-58.78c.2-2,4.75-47.1,22.46-70.19,5.51-7.19,16.69-11.78,32.34-13.29,30.18-2.91,71,6.24,85.66,19.2,18.87,16.7,3.23,63.3-1.87,76.86,5.57-1,15.91-1.64,23.57,4.07,6,4.49,9.08,12,9.09,22.18,0,9.87-3,17.19-9,21.76-9,6.89-22,5.39-27.4,4.36l-4.28,72.81a2.1,2.1,0,0,1-.89,1.59l-66.59,46.39A2,2,0,0,1,862.75,1202Zm5-266c-4,0-7.93.17-11.68.53-14.47,1.4-24.65,5.44-29.43,11.68-17,22.15-21.57,67.46-21.61,67.92l-1.61,58.64a57.9,57.9,0,0,0,3,20.55c4.15,12.09,13.53,28,34.65,34.94a2.1,2.1,0,0,1,1.33,1.32l21.5,65,63.47-44.22,4.37-74.24a2.08,2.08,0,0,1,.86-1.57,2.11,2.11,0,0,1,1.76-.32c.16,0,16.54,4.35,26.27-3.11,4.88-3.74,7.35-9.94,7.34-18.44,0-8.83-2.5-15.17-7.4-18.84-9.07-6.78-23.72-2.59-23.86-2.55a2.09,2.09,0,0,1-2.14-.6,2.11,2.11,0,0,1-.38-2.19c.24-.58,23.91-58.55,4.4-75.81C926.39,944,895,936.05,867.72,936.05Zm61.62,217.51h0Z" transform="translate(0 0)" fill="#404040"/><path d="M803.72,977a53.54,53.54,0,0,1,35.19-47.57c21.69-8,56.38-11.67,96,5.06A53.12,53.12,0,0,1,967,986.08l-2.48,50.69c-9.62-11-28.41-5.4-28.41-5.4h0c-40-23.49-45.2-52.83-45.2-52.83s-46.63,39.34-91.32,37.15Z" transform="translate(0 0)" fill="#404040"/><path d="M895,1021.19a2.08,2.08,0,0,1-1.42-.55c-8.91-8.27-16.82-1.11-17.15-.81a2.08,2.08,0,0,1-2.83-3.05c3.8-3.52,13.45-7.88,22.81.8a2.08,2.08,0,0,1-1.41,3.61Z" transform="translate(0 0)" fill="#404040"/><path d="M825.7,1020.1a2.08,2.08,0,0,1-1.42-3.6,13.64,13.64,0,0,1,18.39-.78,2.08,2.08,0,0,1-2.67,3.2h0a9.47,9.47,0,0,0-12.88.62A2,2,0,0,1,825.7,1020.1Z" transform="translate(0 0)" fill="#404040"/><path d="M863.52,1137.34a94.34,94.34,0,0,1-24.47-3.41,2.08,2.08,0,0,1,1.19-4c.2,0,19.25,5.64,35.9,2a2.08,2.08,0,1,1,.9,4.06A62.7,62.7,0,0,1,863.52,1137.34Z" transform="translate(0 0)" fill="#404040"/><path d="M961.35,1060.12h-.19a2.09,2.09,0,0,1-1.89-2.26c.53-5.89-.58-10.45-3.3-13.56a13.7,13.7,0,0,0-8.82-4.33,2.09,2.09,0,0,1-2-2.17,2.13,2.13,0,0,1,2.15-2,17.82,17.82,0,0,1,11.75,5.7c3.53,4,5,9.63,4.36,16.73A2.07,2.07,0,0,1,961.35,1060.12Z" transform="translate(0 0)" fill="#404040"/><path d="M941.21,1058.91a2,2,0,0,1-1.08-.31,2.07,2.07,0,0,1-.69-2.86c5.77-9.43,18.1-13.19,18.62-13.34a2.08,2.08,0,0,1,1.19,4c-.11,0-11.33,3.47-16.26,11.52A2.09,2.09,0,0,1,941.21,1058.91Z" transform="translate(0 0)" fill="#404040"/><path d="M840,1088.26c16.4,5.71,24.59,5.15,45.47-2.18,0,0-6.27,24.94-26.24,22.28C845.78,1106.57,840,1088.26,840,1088.26Z" transform="translate(0 0)" fill="#404040"/><path d="M858.92,1079.38a6.9,6.9,0,0,1-3.86-1.16c-2.49-1.7-3.91-4.87-3.81-8.48a26.23,26.23,0,0,1,1.3-6.65l.36-1.28a53.64,53.64,0,0,0,.08-28.06,2.08,2.08,0,1,1,4-1.08,57.81,57.81,0,0,1-.08,30.25l-.38,1.33a23,23,0,0,0-1.14,5.6c0,1.69.46,3.87,2,4.93a2.89,2.89,0,0,0,2.33.32,1.69,1.69,0,0,0,1.12-.85,2.08,2.08,0,0,1,3.81,1.68,5.75,5.75,0,0,1-3.78,3.18A7.24,7.24,0,0,1,858.92,1079.38Z" transform="translate(0 0)" fill="#404040"/><path d="M835.49,1033.3c.13,3.32-1.43,6.07-3.48,6.15s-3.82-2.55-4-5.87,1.43-6.08,3.49-6.15S835.36,1030,835.49,1033.3Z" transform="translate(0 0)" fill="#404040"/><path d="M888.61,1034.24c-.23,3.31-2.07,5.89-4.12,5.75s-3.52-3-3.29-6.26,2.07-5.89,4.11-5.75S888.84,1030.92,888.61,1034.24Z" transform="translate(0 0)" fill="#404040"/><path d="M861.05,1232c-.23,3.31-2.07,5.89-4.12,5.75s-3.52-3-3.3-6.26,2.07-5.89,4.12-5.75S861.28,1228.65,861.05,1232Z" transform="translate(0 0)" fill="#404040"/><path d="M884.9,1247.17l-.29,0A2.09,2.09,0,0,1,883,1246l-21-42.87-43,32.57a2.09,2.09,0,0,1-2,.29,2.07,2.07,0,0,1-1.3-1.56l-16.47-87a2.08,2.08,0,0,1,4.09-.77l15.85,83.73,42.33-32.06a2.07,2.07,0,0,1,3.12.74l20.81,42.39L960,1160.21A2.08,2.08,0,1,1,963,1163l-76.58,83.47A2.1,2.1,0,0,1,884.9,1247.17Z" transform="translate(0 0)" fill="#404040"/><path d="M959.92,1091.65c1.39,4.08,5.2,6.88,9.18,8.51s8.28,2.37,12.33,3.83c15,5.45,38.49,14.5,43.75,37.93,6.26,27.89-8.16,65.48-8.16,65.48s-37.08-20.49-90.75,0l3-132.77c15.44,5.83,29.59,3.56,34.87,1.14C961.39,1080.6,958,1085.86,959.92,1091.65Z" transform="translate(0 0)" fill="#404040"/><path d="M1292.52,1402.14c64.48-268.76,239.41-300.83,262.4-303.9a132.48,132.48,0,0,1,14.18-3c5.51-.84,8.94-1.33,8.94-1.33l93.3.84s204.52-24.41,292,304.9a60,60,0,0,1-14.09,56.3l-640.72-2A53.34,53.34,0,0,1,1292.52,1402.14Zm499.19,41.6,44-49.1-48-73.24Zm-343-22.28c-.11-22.8-.11-45.48.07-67.27l-25.4,34.65Z" transform="translate(0 0)" fill="#2356ce"/><path d="M1949.25,1458.09h0l-640.72-2a2.06,2.06,0,0,1-1.39-.54,55.41,55.41,0,0,1-16.64-53.85c27.22-113.42,76.85-198.46,147.52-252.75,54.13-41.59,102.69-50.86,116.5-52.72a139.13,139.13,0,0,1,14.28-3c5.52-.84,9-1.33,9-1.33l.32,0,93.17.83c1.51-.16,14-1.38,33.72,1.36,18.92,2.63,48.26,9.6,80.61,27.88,103.23,58.31,154.75,182.94,179.79,277.22a61.7,61.7,0,0,1-14.58,58.25A2.06,2.06,0,0,1,1949.25,1458.09Zm-639.9-6.2,639,2a57.59,57.59,0,0,0,13-53.69c-24.81-93.4-75.76-216.84-177.56-274.51-31.77-18-60.57-24.88-79.14-27.49-20.13-2.83-32.92-1.38-33.05-1.37a1.18,1.18,0,0,1-.26,0l-93.14-.83c-.73.1-4,.57-8.77,1.29a135.72,135.72,0,0,0-14,2.91l-.26,0c-9.52,1.27-59.79,9.77-114.64,51.91-69.9,53.7-119,138-146,250.42h0A51.24,51.24,0,0,0,1309.35,1451.89Zm-16.83-49.75h0Zm499.19,43.68a2,2,0,0,1-.72-.13,2.09,2.09,0,0,1-1.37-1.89l-3.89-122.33a2.08,2.08,0,0,1,3.82-1.21l48,73.24a2.08,2.08,0,0,1-.19,2.53l-44,49.1A2.09,2.09,0,0,1,1791.71,1445.82Zm-1.58-117.08,3.49,109.74,39.52-44Zm-341.37,94.8a2.06,2.06,0,0,1-1.64-.8l-25.34-32.63a2.09,2.09,0,0,1,0-2.51l25.4-34.64a2.08,2.08,0,0,1,3.76,1.25c-.17,20.61-.19,43.23-.07,67.24a2.08,2.08,0,0,1-1.4,2A2,2,0,0,1,1448.76,1423.54ZM1426,1388.8l20.61,26.55c-.08-19.31-.06-37.66,0-54.73Z" transform="translate(0 0)" fill="#404040"/><ellipse cx="1620.49" cy="1147.43" rx="3.76" ry="6.08" fill="#404040"/><ellipse cx="1620.49" cy="1177.37" rx="3.76" ry="6.08" fill="#404040"/><path d="M1663.15,1185.53a2.07,2.07,0,0,1-1.66-.82l-40.44-53.54-41,50.36a2.07,2.07,0,0,1-3.61-.74l-23.57-82a2.08,2.08,0,1,1,4-1.15l22.47,78.15,40.1-49.33a2.06,2.06,0,0,1,1.65-.77,2.1,2.1,0,0,1,1.63.83l40.11,53.1,46.39-83.51a2.08,2.08,0,1,1,3.63,2L1665,1184.46a2.07,2.07,0,0,1-1.67,1.07Z" transform="translate(0 0)" fill="#404040"/><path d="M1621.11,1129.88a2.1,2.1,0,0,1-1.45-.58L1583,1094a2.08,2.08,0,0,1-.64-1.5v-23.47a58.62,58.62,0,0,1-27.44-49.86V1012a26.62,26.62,0,0,1-3.23.19c-4.47,0-10.81-1.08-15.7-6.22-5.11-5.36-7.4-13.89-6.83-25.35,1.06-21.14,9.76-25.58,16.88-25.58a21,21,0,0,1,7,1.32c-3.34-10-9.72-33.76-4.44-57.28,5.41-24.1,54-34.94,86.83-34.94,12.91,0,23.92,1.6,31,4.49,24.87,10.16,22.49,72.56,21.43,88.94a21.89,21.89,0,0,1,8.81-2.09c6.91,0,15.37,4.36,16.41,25.14.57,11.46-1.72,20-6.82,25.35-4.89,5.14-11.24,6.22-15.7,6.22a28.9,28.9,0,0,1-3-.16l-1.66,80.57a2.09,2.09,0,0,1-1.06,1.77l-62.68,35.28A2.08,2.08,0,0,1,1621.11,1129.88Z" transform="translate(0 0)" fill="#fff"/><path d="M1635.42,866.19c12.27,0,23.13,1.43,30.22,4.33,27,11,19.86,90.65,19.86,90.65s5.35-3.65,11.17-3.65c6.42,0,13.4,4.45,14.33,23.17,1.29,25.81-12.64,29.38-20.44,29.38a23,23,0,0,1-5.06-.52l-1.71,83-62.68,35.28-36.7-35.28v-24.63h0a56.88,56.88,0,0,1-27.43-48.7v-9.64h-.26a23,23,0,0,1-5.06.52c-7.8,0-21.74-3.57-20.45-29.38,1-19.17,8.25-23.61,14.8-23.61a22.43,22.43,0,0,1,10.71,3.29s-12.81-31-6.1-60.87c5-22,50.43-33.31,84.8-33.31m0-4.17c-31.18,0-82.88,9.93-88.86,36.57-4.82,21.45-.14,43.08,3.33,54.71a20.34,20.34,0,0,0-3.88-.38c-6.57,0-17.76,3.58-19,27.56-.6,12,1.89,21.09,7.4,26.89s12.34,6.86,17.21,6.86c.4,0,.78,0,1.15,0v5a60.65,60.65,0,0,0,27.44,51v22.34a4.14,4.14,0,0,0,1.28,3l36.69,35.28a4.2,4.2,0,0,0,2.89,1.16,4.15,4.15,0,0,0,2-.54l62.68-35.27a4.17,4.17,0,0,0,2.12-3.55l1.62-78.38h1c4.87,0,11.81-1.19,17.21-6.86s8-14.84,7.39-26.89c-1.18-23.6-12.09-27.13-18.49-27.13a22,22,0,0,0-6.52,1.06c1.19-21,2-77.58-22.94-87.75-9.39-3.83-22.47-4.64-31.79-4.64Z" transform="translate(0 0)" fill="#404040"/><path d="M1680.78,859.51c-.4-.94,16,21.17,17.16,55.2.58,16.85-2.72,42.48-2.72,42.48-10-1.07-16.74,9.75-16.74,9.75l-3.37-68.43h0c-21.61,11.45-74.69,14.91-110.91-2.79-1,2.53-5.34,67.22-5.34,67.22s-5.22-4.85-15.16-5.76c0,0-2.36-34.88-2.36-52.92a91.92,91.92,0,0,1,2.55-22.66c-7-6.15-12.65-12.32-14.93-15.59,21.89-1,38.88-19,59.21-27.14,16.06-6.46,26.62-9.54,43.93-9.66,7.37-.05,21.42,2.36,28.92,5.88,9.9,4.64,19.63,12.63,19.76,24.41Z" transform="translate(0 0)" fill="#404040"/><path d="M1621.51,1076.88H1608a58.91,58.91,0,0,1-30.57-8.53,2.07,2.07,0,0,1-.7-2.86,2.09,2.09,0,0,1,2.86-.7,54.7,54.7,0,0,0,28.41,7.93h13.53a2.08,2.08,0,1,1,0,4.16Z" transform="translate(0 0)" fill="#404040"/><path d="M1554.57,1014.61a2.08,2.08,0,0,1-2.08-2.08v-7a2.08,2.08,0,0,1,4.16,0v7A2.08,2.08,0,0,1,1554.57,1014.61Z" transform="translate(0 0)" fill="#404040"/><path d="M1619.3,945.38a2.14,2.14,0,0,1-1.36-.5,2.09,2.09,0,0,1-.22-2.94c.09-.11,9.37-10.66,23-2.56a2.08,2.08,0,0,1-2.13,3.58c-10.66-6.33-17.44,1.36-17.72,1.69A2.09,2.09,0,0,1,1619.3,945.38Z" transform="translate(0 0)" fill="#404040"/><path d="M1589.87,944.84a2.07,2.07,0,0,1-1.62-.78c-7.78-9.66-16.82-4.82-17.2-4.61a2.08,2.08,0,0,1-2-3.64c.13-.07,12.51-6.72,22.46,5.64a2.08,2.08,0,0,1-.31,2.92A2.11,2.11,0,0,1,1589.87,944.84Z" transform="translate(0 0)" fill="#404040"/><path d="M1704.34,988.37a2.09,2.09,0,0,1-2.08-2c-.81-12.56-3.72-16-5.38-17a2.8,2.8,0,0,0-2.61-.17,2.1,2.1,0,0,1-2.79-.89,2.06,2.06,0,0,1,.82-2.78,7,7,0,0,1,6.52.15c4.32,2.37,6.87,9.24,7.6,20.41a2.1,2.1,0,0,1-2,2.22Z" transform="translate(0 0)" fill="#404040"/><path d="M1693.86,996h-.26a2.1,2.1,0,0,1-1.81-2.33c1.86-15.11,8.71-21.2,9-21.45a2.08,2.08,0,0,1,2.74,3.14c-.13.11-6,5.51-7.61,18.82A2.07,2.07,0,0,1,1693.86,996Z" transform="translate(0 0)" fill="#404040"/><path d="M1537.88,988.37h-.13a2.08,2.08,0,0,1-2-2.21c.72-11.17,3.28-18,7.6-20.41a7,7,0,0,1,6.52-.15,2.08,2.08,0,0,1-2,3.66,2.83,2.83,0,0,0-2.6.18c-1.66,1-4.57,4.43-5.38,17A2.09,2.09,0,0,1,1537.88,988.37Z" transform="translate(0 0)" fill="#404040"/><path d="M1548.36,996a2.08,2.08,0,0,1-2.07-1.83c-1.67-13.54-7.53-18.77-7.59-18.82a2.08,2.08,0,1,1,2.73-3.14c.29.25,7.13,6.34,9,21.45a2.1,2.1,0,0,1-1.81,2.33Z" transform="translate(0 0)" fill="#404040"/><path d="M1607.43,1001.25a13.44,13.44,0,0,1-7.18-2.17c-7.27-4.52-2.56-34-1-43a2.08,2.08,0,1,1,4.1.74c-3.08,17.06-4.2,36.68-1,38.7a8.85,8.85,0,0,0,9.78.1,2.08,2.08,0,1,1,2.5,3.33A12.93,12.93,0,0,1,1607.43,1001.25Z" transform="translate(0 0)" fill="#404040"/><path d="M1605.09,1036.74a33.06,33.06,0,0,1-18.27-5.3,2.08,2.08,0,0,1,2.27-3.49c17.13,11.08,37.43-1.48,37.63-1.61a2.08,2.08,0,1,1,2.23,3.52C1628.32,1030.26,1617.85,1036.74,1605.09,1036.74Z" transform="translate(0 0)" fill="#404040"/><path d="M1634.47,965c-5.06,0-10-2.51-12.91-4.69a2.08,2.08,0,0,1,2.51-3.32c.46.34,11.19,8.28,17.49.36a2.08,2.08,0,1,1,3.25,2.6A12.7,12.7,0,0,1,1634.47,965Z" transform="translate(0 0)" fill="#404040"/><path d="M1580,965c-5.06,0-10-2.51-12.91-4.69a2.08,2.08,0,1,1,2.51-3.32c.45.34,11.19,8.27,17.48.36a2.08,2.08,0,1,1,3.26,2.6A12.72,12.72,0,0,1,1580,965Z" transform="translate(0 0)" fill="#404040"/><path d="M1791.22,1332.16a2.08,2.08,0,0,1-1.82-1.07L1757.54,1274a2.08,2.08,0,0,1,3.63-2l31.87,57.13a2.08,2.08,0,0,1-1.82,3.1Z" transform="translate(0 0)" fill="#404040"/><path d="M1446.77,1372.63a2.08,2.08,0,0,1-2.08-2.08v-113.2a2.09,2.09,0,1,1,4.17,0v113.2A2.09,2.09,0,0,1,1446.77,1372.63Z" transform="translate(0 0)" fill="#404040"/><path d="M1857.3,1396.72h-21.54a2.08,2.08,0,1,1,0-4.16h21.54a2.08,2.08,0,0,1,0,4.16Z" transform="translate(0 0)" fill="#404040"/><rect x="267.24" y="1402.79" width="1806.15" height="63.86" fill="#404040"/><rect x="1262.18" y="1094.52" width="404.43" height="233.43" rx="23.19" fill="#fff"/><path d="M1643.43,1096.6a21.13,21.13,0,0,1,21.1,21.11v187.06a21.12,21.12,0,0,1-21.1,21.1H1285.37a21.12,21.12,0,0,1-21.1-21.1V1117.71a21.13,21.13,0,0,1,21.1-21.11h358.06m0-4.16H1285.37a25.27,25.27,0,0,0-25.27,25.27v187.06a25.27,25.27,0,0,0,25.27,25.26h358.06a25.26,25.26,0,0,0,25.27-25.26V1117.71a25.27,25.27,0,0,0-25.27-25.27Z" transform="translate(0 0)" fill="#404040"/><path d="M1417.47,1403.88l26.81-117.52a7.9,7.9,0,0,1,7.74-6.17h24.66a8,8,0,0,1,7.76,6.27l25.34,117.42Z" transform="translate(0 0)" fill="#fff"/><path d="M1476.68,1282.28a5.89,5.89,0,0,1,5.73,4.62l24.79,114.89h-87.12l26.23-115a5.83,5.83,0,0,1,5.71-4.55h24.66m0-4.17H1452a10,10,0,0,0-9.77,7.79L1414.86,1406h97.5L1486.48,1286a10,10,0,0,0-9.8-7.91Z" transform="translate(0 0)" fill="#404040"/><path d="M1463.07,1340.32a18.69,18.69,0,1,1-18.69,18.69,18.71,18.71,0,0,1,18.69-18.69m0-4.17a22.86,22.86,0,1,0,22.86,22.86,22.87,22.87,0,0,0-22.86-22.86Z" transform="translate(0 0)" fill="#404040"/><path d="M1400.33,1290.2h-54.64a2.09,2.09,0,0,1,0-4.17h54.64a2.09,2.09,0,1,1,0,4.17Z" transform="translate(0 0)" fill="#404040"/><path d="M1400.33,1274.3h-54.64a2.09,2.09,0,0,1,0-4.17h54.64a2.09,2.09,0,1,1,0,4.17Z" transform="translate(0 0)" fill="#404040"/><path d="M1400.33,1306.1h-54.64a2.09,2.09,0,0,1,0-4.17h54.64a2.09,2.09,0,1,1,0,4.17Z" transform="translate(0 0)" fill="#404040"/><rect x="387.19" y="1094.52" width="404.43" height="233.43" rx="23.19" fill="#fff"/><path d="M768.43,1096.6a21.13,21.13,0,0,1,21.11,21.11v187.06a21.13,21.13,0,0,1-21.11,21.1h-358a21.13,21.13,0,0,1-21.11-21.1V1117.71a21.13,21.13,0,0,1,21.11-21.11h358m0-4.16h-358a25.27,25.27,0,0,0-25.27,25.27v187.06A25.26,25.26,0,0,0,410.38,1330h358a25.26,25.26,0,0,0,25.27-25.26V1117.71a25.27,25.27,0,0,0-25.27-25.27Z" transform="translate(0 0)" fill="#404040"/><path d="M542.47,1403.87l26.82-117.51a7.9,7.9,0,0,1,7.74-6.17h24.66a8,8,0,0,1,7.76,6.26l25.33,117.42Z" transform="translate(0 0)" fill="#fff"/><path d="M601.69,1282.28a5.88,5.88,0,0,1,5.72,4.62l24.79,114.89H545.08l26.24-115a5.82,5.82,0,0,1,5.7-4.55h24.67m0-4.17H577a10,10,0,0,0-9.76,7.79L539.86,1406h97.5L611.48,1286a10,10,0,0,0-9.79-7.91Z" transform="translate(0 0)" fill="#404040"/><path d="M588.07,1340.32A18.69,18.69,0,1,1,569.38,1359a18.71,18.71,0,0,1,18.69-18.69m0-4.17A22.86,22.86,0,1,0,610.93,1359a22.86,22.86,0,0,0-22.86-22.86Z" transform="translate(0 0)" fill="#404040"/><path d="M525.34,1290.2H470.7a2.09,2.09,0,1,1,0-4.17h54.64a2.09,2.09,0,0,1,0,4.17Z" transform="translate(0 0)" fill="#404040"/><path d="M525.34,1274.3H470.7a2.09,2.09,0,1,1,0-4.17h54.64a2.09,2.09,0,0,1,0,4.17Z" transform="translate(0 0)" fill="#404040"/><path d="M525.34,1306.1H470.7a2.09,2.09,0,1,1,0-4.17h54.64a2.09,2.09,0,0,1,0,4.17Z" transform="translate(0 0)" fill="#404040"/><line x1="1170.31" y1="675.4" x2="1170.31" y2="1434.72" fill="#fff"/><path d="M1170.31,1436.8a2.08,2.08,0,0,1-2.08-2.08V675.4a2.08,2.08,0,0,1,4.16,0v759.32A2.08,2.08,0,0,1,1170.31,1436.8Z" transform="translate(0 0)" fill="#404040"/><rect x="2507.65" y="2092.4" width="517.6" height="450.19" fill="#fff"/><path d="M3023.18,2094.48v446H2509.74v-446h513.44m4.16-4.16H2505.57v454.35h521.77V2090.32Z" transform="translate(0 0)" fill="#404040"/><rect x="2456.63" y="1996.93" width="619.64" height="112.13" rx="23.56" fill="#2356ce"/><path d="M3020.21,2111.14H2512.7a58.15,58.15,0,1,1,0-116.29h507.51a58.15,58.15,0,1,1,0,116.29ZM2512.7,1999a54,54,0,0,0,0,108h507.51a54,54,0,1,0,0-108Z" transform="translate(0 0)" fill="#404040"/><path d="M2032.22,2003.56c-14-6.89-29.45-12.19-44.92-10.29s-30.67,12.71-33.49,28c-3.19,17.32,9.43,33.35,22.31,45.34,32.42,30.19,71.54,52.21,111.4,71.55,8,3.86,16.26,7.7,25.1,8,43.14,1.67,9.3-54.44-1.1-70.86C2092.21,2044.88,2064.64,2019.54,2032.22,2003.56Z" transform="translate(0 0)" fill="#fff"/><path d="M2114.44,2148.35c-.62,0-1.25,0-1.9,0-8.95-.34-17-3.94-25.93-8.25-33.72-16.36-76.92-39.32-111.91-71.89-18.17-16.93-25.68-32.39-22.94-47.24,3.14-17,20.13-27.86,35.29-29.72,13.55-1.68,28.2,1.66,46.1,10.48a199.74,199.74,0,0,1,80.13,72.57c13.87,21.9,28.66,51,20.34,65.49C2130.33,2145.46,2123.89,2148.35,2114.44,2148.35ZM1993.87,1995a50.55,50.55,0,0,0-6.31.39c-13.65,1.68-28.93,11.27-31.7,26.34-2.46,13.35,4.63,27.56,21.69,43.44,34.57,32.2,77.42,55,110.88,71.19,8.46,4.11,16.12,7.53,24.27,7.84,8.77.34,14.64-1.84,17.31-6.47,5.68-9.87-1.51-31.6-20.25-61.2a195.47,195.47,0,0,0-78.46-71h0C2017,1998.35,2004.87,1995,1993.87,1995Z" transform="translate(0 0)" fill="#404040"/><path d="M2258.94,1724.5c25-24.49,54.36-46.64,88.71-53.39s74.37,5.68,91.12,36.43c18.92,34.73,3.18,77.78-15.94,112.41-48.11,87.12-116.23,161.49-187.8,230.65-14.31,13.82-29.32,27.82-48,34.73-90.94,33.73-57.93-109.73-47.2-152.06C2159.76,1854.67,2200.91,1781.28,2258.94,1724.5Z" transform="translate(0 0)" fill="#ccc"/><path d="M2162.62,2092.49q-14,0-23.2-8.24c-26.9-24.17-15.71-95.72-1.58-151.49,20.41-80.61,61.79-153.14,119.64-209.75l1.46,1.49-1.46-1.49c31.67-31,60.2-48.13,89.77-53.94,32.74-6.43,75.32,4.37,93.35,37.47,15.78,29,10.57,66.4-15.95,114.41-51.74,93.72-127.75,172.76-188.18,231.15-15.74,15.21-30.28,28.36-48.69,35.19Q2173.75,2092.48,2162.62,2092.49ZM2260.4,1726c-57.31,56.08-98.3,127.94-118.53,207.8-19.57,77.26-19.45,129.6.34,147.38,9.72,8.73,24.57,9.47,44.12,2.22,17.66-6.55,31.85-19.4,47.25-34.28C2348.22,1938.33,2394,1867.91,2421,1818.94c25.77-46.67,31-82.78,15.93-110.4-17.07-31.34-57.63-41.53-88.89-35.39-28.74,5.65-56.59,22.44-87.65,52.83Z" transform="translate(0 0)" fill="#404040"/><path d="M2137.48,2313a2.09,2.09,0,0,1-2.08-1.95c-13.55-214.31,70.07-431.82,223.71-581.85a2.08,2.08,0,0,1,2.91,3c-152.78,149.19-235.94,365.49-222.46,578.6a2.08,2.08,0,0,1-1.95,2.21Z" transform="translate(0 0)" fill="#404040"/><path d="M2008.64,2307.9s-12.28,175.4,138.79,175.4c137,0,138.8-175.4,138.8-175.4Z" transform="translate(0 0)" fill="#ccc"/><path d="M2147.43,2485.38c-41.26,0-74.31-13-98.23-38.66-48.15-51.64-42.7-138.1-42.64-139a2.08,2.08,0,0,1,2.08-1.93h277.59a2.07,2.07,0,0,1,2.08,2.1c0,.44-.66,44.75-18.18,88.45C2246.79,2454.6,2204.37,2485.38,2147.43,2485.38ZM2010.62,2310c-.49,13-1.32,87.86,41.64,133.92,23.1,24.76,55.12,37.32,95.17,37.32,55.84,0,95.81-29,118.8-86.3,15.1-37.61,17.49-75.71,17.85-84.94Z" transform="translate(0 0)" fill="#404040"/><path d="M2143.51,2381.56c-79.67,0-132.36-24.49-133.14-24.86a2.08,2.08,0,1,1,1.79-3.76c1.16.55,118.11,54.83,267.5-.08a2.08,2.08,0,0,1,1.44,3.91A397.41,397.41,0,0,1,2143.51,2381.56Z" transform="translate(0 0)" fill="#404040"/><path d="M2144.54,2157.28a2.08,2.08,0,0,1-1.65-.8c-69-88.46-150.77-117.75-151.58-118a2.09,2.09,0,0,1,1.37-3.94c.83.3,83.7,30,153.49,119.41a2.07,2.07,0,0,1-.36,2.92A2,2,0,0,1,2144.54,2157.28Z" transform="translate(0 0)" fill="#404040"/><ellipse cx="2147.43" cy="2307.9" rx="138.8" ry="21.76" fill="#404040"/><rect x="728.99" y="142.96" width="882.64" height="468.62" fill="#fff"/><path d="M1609.55,145V609.5H731.08V145h878.47m4.16-4.17H726.91V613.66h886.8V140.87Z" transform="translate(0 0)" fill="#404040"/><rect x="746.47" y="156.83" width="847.68" height="440.87" fill="#404040"/><path d="M963,281.22a30.51,30.51,0,0,0,12.84,3.4c6.72,0,10.12-3.23,10.12-7.4,0-5.44-5.44-7.91-11.14-7.91h-5.27V260h5c4.34-.08,9.86-1.7,9.86-6.38,0-3.32-2.72-5.78-8.16-5.78a25.14,25.14,0,0,0-11.57,3.32l-2.64-9.36c3.32-2.13,10-4.17,17.1-4.17,11.82,0,18.37,6.21,18.37,13.78,0,5.87-3.31,10.46-10.12,12.84v.17c6.63,1.19,12,6.21,12,13.44,0,9.78-8.59,16.93-22.62,16.93-7.15,0-13.18-1.87-16.42-3.92Z" transform="translate(0 0)" fill="#2356ce"/><path d="M1007.91,293.89v-7.82l7.14-6.47c12.08-10.8,18-17,18.12-23.47,0-4.51-2.72-8.08-9.1-8.08-4.77,0-8.93,2.38-11.83,4.59l-3.65-9.27a30.58,30.58,0,0,1,18.11-5.7c12.51,0,19.4,7.32,19.4,17.35,0,9.27-6.72,16.67-14.72,23.82l-5.1,4.25v.17h20.84v10.63Z" transform="translate(0 0)" fill="#2356ce"/><path d="M1090.42,247.79a36.33,36.33,0,0,0-5,.17c-11.48.94-16.59,6.81-18,13.27h.25c2.72-2.81,6.55-4.42,11.74-4.42,9.27,0,17.09,6.55,17.09,18,0,11-8.42,20-20.41,20-14.71,0-21.94-11-21.94-24.16,0-10.37,3.83-19.05,9.78-24.58,5.53-5,12.67-7.74,21.35-8.16a38,38,0,0,1,5.19-.09Zm-7.06,27.73c0-5.1-2.72-9.53-8.25-9.53a8.44,8.44,0,0,0-7.66,4.94,7.46,7.46,0,0,0-.51,3.23c.26,5.87,3.07,11.14,8.93,11.14C1080.47,285.3,1083.36,281.13,1083.36,275.52Z" transform="translate(0 0)" fill="#2356ce"/><path d="M963,383.3a30.51,30.51,0,0,0,12.84,3.4c6.72,0,10.12-3.23,10.12-7.4,0-5.44-5.44-7.91-11.14-7.91h-5.27v-9.27h5c4.34-.08,9.86-1.7,9.86-6.38,0-3.31-2.72-5.78-8.16-5.78a25.26,25.26,0,0,0-11.57,3.32l-2.64-9.36c3.32-2.12,10-4.16,17.1-4.16,11.82,0,18.37,6.2,18.37,13.77,0,5.87-3.31,10.46-10.12,12.85v.17c6.63,1.19,12,6.21,12,13.43,0,9.79-8.59,16.93-22.62,16.93-7.15,0-13.18-1.87-16.42-3.91Z" transform="translate(0 0)" fill="#2356ce"/><path d="M1007.91,396v-7.82l7.14-6.46c12.08-10.81,18-17,18.12-23.48,0-4.51-2.72-8.08-9.1-8.08-4.77,0-8.93,2.38-11.83,4.59l-3.65-9.27a30.65,30.65,0,0,1,18.11-5.69c12.51,0,19.4,7.31,19.4,17.35,0,9.27-6.72,16.67-14.72,23.81l-5.1,4.25v.17h20.84V396Z" transform="translate(0 0)" fill="#2356ce"/><path d="M1094.75,340.69v8.17L1072,396h-13.69l22.79-44.48v-.17h-25.34V340.69Z" transform="translate(0 0)" fill="#2356ce"/><path d="M963,485.38a30.34,30.34,0,0,0,12.84,3.41c6.72,0,10.12-3.24,10.12-7.4,0-5.45-5.44-7.91-11.14-7.91h-5.27v-9.27h5c4.34-.09,9.86-1.7,9.86-6.38,0-3.32-2.72-5.78-8.16-5.78a25.27,25.27,0,0,0-11.57,3.31L962.05,446c3.32-2.13,10-4.17,17.1-4.17,11.82,0,18.37,6.21,18.37,13.78,0,5.86-3.31,10.46-10.12,12.84v.17c6.63,1.19,12,6.21,12,13.44,0,9.78-8.59,16.92-22.62,16.92-7.15,0-13.18-1.87-16.42-3.91Z" transform="translate(0 0)" fill="#2356ce"/><path d="M1007.91,498.06v-7.83l7.14-6.46c12.08-10.8,18-17,18.12-23.48,0-4.5-2.72-8.08-9.1-8.08-4.77,0-8.93,2.39-11.83,4.6l-3.65-9.27a30.58,30.58,0,0,1,18.11-5.7c12.51,0,19.4,7.31,19.4,17.35,0,9.27-6.72,16.67-14.72,23.81l-5.1,4.26v.17h20.84v10.63Z" transform="translate(0 0)" fill="#2356ce"/><path d="M1054.27,483.6c0-6.63,3.83-11.23,9.87-13.86v-.26c-5.36-2.72-8-7.23-8-12.08,0-9.35,8.42-15.56,19.48-15.56,12.93,0,18.28,7.48,18.28,14.2,0,4.76-2.55,9.44-8,12.16v.26c5.36,2,10.12,6.63,10.12,13.78,0,10-8.42,16.75-21.26,16.75C1060.73,499,1054.27,491.08,1054.27,483.6Zm28.58-.43c0-4.84-3.58-7.74-8.68-9.1-4.25,1.19-6.72,4.26-6.72,8.25a7.58,7.58,0,0,0,7.83,7.74C1079.87,490.06,1082.85,487.09,1082.85,483.17ZM1068.3,457c0,3.74,3.4,6.12,7.83,7.48a7.57,7.57,0,0,0,5.61-7.06c0-3.4-2-6.8-6.72-6.8C1070.6,450.6,1068.3,453.49,1068.3,457Z" transform="translate(0 0)" fill="#2356ce"/><path d="M1359.43,293.89v-7.82l7.14-6.47c12.08-10.8,18-17,18.12-23.47,0-4.51-2.72-8.08-9.1-8.08-4.77,0-8.93,2.38-11.83,4.59l-3.65-9.27a30.56,30.56,0,0,1,18.11-5.7c12.51,0,19.4,7.32,19.4,17.35,0,9.27-6.72,16.67-14.72,23.82l-5.1,4.25v.17h20.84v10.63Z" transform="translate(0 0)" fill="#fff"/><path d="M1396.34,351.32h-21.43l-1.19,8.51a23.94,23.94,0,0,1,3.57-.17c5.27,0,10.63,1.19,14.54,4,4.17,2.8,6.72,7.39,6.72,13.86,0,10.29-8.84,19.39-23.73,19.39-6.72,0-12.33-1.53-15.39-3.15l2.29-9.69a31.82,31.82,0,0,0,12.5,2.72c5.36,0,11.06-2.55,11.06-8.42,0-5.7-4.51-9.19-15.56-9.19a47.88,47.88,0,0,0-7.49.51l3.66-29h30.45Z" transform="translate(0 0)" fill="#fff"/><path d="M1375.93,454.26h-.17l-10.55,5-2.13-9.69,14.63-6.81h10.72v55.29h-12.5Z" transform="translate(0 0)" fill="#fff"/><rect x="1156.92" y="264.57" width="101.09" height="19.04" fill="#fff"/><polygon points="1249.67 302.57 1298.99 274.09 1249.67 245.61 1249.67 302.57" fill="#fff"/><rect x="1156.92" y="365.4" width="101.09" height="19.04" fill="#fff"/><polygon points="1249.67 403.4 1298.99 374.92 1249.67 346.44 1249.67 403.4" fill="#fff"/><rect x="1156.92" y="466.23" width="101.09" height="19.04" fill="#fff"/><polygon points="1249.67 504.23 1298.99 475.75 1249.67 447.27 1249.67 504.23" fill="#fff"/><path d="M621.64,1265.32A49.12,49.12,0,0,0,595,1221.64c-8-55.24-22.47-89.71-22.47-89.71l-101.35-22.67c-125.25,69.53-70.1,432-70.1,432H544.35s38.51-114.29,46.07-151.27a483.13,483.13,0,0,0,9.54-83.87A49.12,49.12,0,0,0,621.64,1265.32Z" transform="translate(0 0)" fill="#fff"/><path d="M544.35,1543.31H401a2.09,2.09,0,0,1-2.06-1.77c-.13-.91-13.79-91.92-11.94-190.26,2.5-132.58,30.45-214.62,83.09-243.84a2.06,2.06,0,0,1,1.46-.21L573,1129.9a2.09,2.09,0,0,1,1.46,1.22c.14.35,14.48,34.91,22.46,89.17A51.2,51.2,0,0,1,602,1307.2a485.3,485.3,0,0,1-9.55,83.17c-7.5,36.69-45.75,150.38-46.13,151.52A2.09,2.09,0,0,1,544.35,1543.31Zm-141.51-4.17h140c4.44-13.27,38.53-115.38,45.52-149.6a481.27,481.27,0,0,0,9.49-83.51,2.09,2.09,0,0,1,.92-1.67,47,47,0,0,0-4.78-80.87,2.1,2.1,0,0,1-1.11-1.55c-7.13-49.25-19.56-82.21-21.93-88.22l-99.51-22.25C354.24,1178,398.94,1511.68,402.84,1539.14Z" transform="translate(0 0)" fill="#404040"/><path d="M299.27,2501.53a40.37,40.37,0,0,1-11.15-1.84c-23.06-6.76-24.32-54.94-24.39-59.71,4.47-11.6,108.54-280,183.51-359.88a2.05,2.05,0,0,0,.56-1.37l6.12-242,117.51,191.19-8.85,52.44a101.62,101.62,0,0,1-18,42.7L299.18,2459.71a2.11,2.11,0,0,0-.21,2.1L313,2492.16c-.41,2-2.68,9.37-13.77,9.37Z" transform="translate(0 0)" fill="#fff"/><path d="M455.83,1843.81l113.42,184.55L560.53,2080a99.49,99.49,0,0,1-17.61,41.82L297.5,2458.48a4.17,4.17,0,0,0-.41,4.21l13.77,29.72c-.59,2.12-2.89,7-11.59,7a38.38,38.38,0,0,1-10.56-1.75c-18.47-5.42-22.76-42.49-22.9-57.33,6.12-15.84,108.9-279.94,183-358.84a4.13,4.13,0,0,0,1.12-2.75l5.95-235M452,1829.66l-6.3,249c-77.41,82.48-184.07,360.92-184.07,360.92s-.06,54.49,25.88,62.09a42.21,42.21,0,0,0,11.74,1.92c14.77,0,15.93-11.75,15.93-11.75l-14.34-30.92,245.42-336.65a103.13,103.13,0,0,0,18.36-43.57l9-53.21L452,1829.66Z" transform="translate(0 0)" fill="#404040"/><path d="M544.35,1541.23l60.17,438.3a134,134,0,0,1-22.27,94l-211,307.35-87.15-62.29,164.15-290.27L389,1541.23Z" transform="translate(0 0)" fill="#2356ce"/><path d="M371.24,2383a2.13,2.13,0,0,1-1.21-.39l-87.15-62.3a2.07,2.07,0,0,1-.6-2.72l163.81-289.67-59.21-486.43a2.1,2.1,0,0,1,2.07-2.34h155.4a2.09,2.09,0,0,1,2.07,1.8l60.16,438.3A135.72,135.72,0,0,1,584,2074.73L373,2382.08a2.08,2.08,0,0,1-1.36.87A1.47,1.47,0,0,1,371.24,2383Zm-84.41-65,83.89,60,209.81-305.6a131.55,131.55,0,0,0,21.92-92.56l-59.91-436.5H391.3l59,484.78a2,2,0,0,1-.25,1.28Z" transform="translate(0 0)" fill="#2356ce"/><path d="M315.2,2491.86c-31.85,0-53.55-52.26-53.55-52.26l-37.83,36.46,120.55,68.61Z" transform="translate(0 0)" fill="#404040"/><path d="M446.44,2531.39c-22.19,0-43.74-37.3-45.94-41.22-1.61-12.33-38.46-297.83-10.78-403.82a2,2,0,0,0,0-.81L355.88,1836l164.63-5.6-79.45,660.14a2.1,2.1,0,0,0,.83,1.92l26.86,19.94a11.34,11.34,0,0,1-.81,8.46c-2.45,4.64-8.5,8.12-17.48,10.07A19.25,19.25,0,0,1,446.44,2531.39Z" transform="translate(0 0)" fill="#fff"/><path d="M518.15,1832.6,439,2490.33a4.18,4.18,0,0,0,1.65,3.85l26.27,19.49a9.27,9.27,0,0,1-.86,6.32c-2.17,4.05-7.72,7.14-16,8.94a17.14,17.14,0,0,1-3.58.38c-17.94,0-37.41-28.1-43.93-39.8-2.19-16.87-38.12-298-10.77-402.63a4.21,4.21,0,0,0,.09-1.62l-33.58-247.21,159.9-5.45m4.72-4.33h0Zm0,0L353.51,1834l34.2,251.78c-28.59,109.45,10.78,405,10.78,405s23.14,42.65,47.95,42.65a21.21,21.21,0,0,0,4.46-.48c26.42-5.72,19.6-21.85,19.6-21.85l-27.37-20.32,79.74-662.56Z" transform="translate(0 0)" fill="#404040"/><path d="M470.5,2511.15c-28,15.18-72-20.32-72-20.32l-15.81,50.11,138.68,2.66Z" transform="translate(0 0)" fill="#404040"/><path d="M544.35,1541.23l-74.16,814.91H371.24s-57-667.65,0-814.91Z" transform="translate(0 0)" fill="#2356ce"/><path d="M470.19,2358.22H371.24a2.08,2.08,0,0,1-2.07-1.91c-.15-1.66-14.35-169.08-21.4-352.32-9.47-246.23-2.23-402.18,21.53-463.51a2.08,2.08,0,0,1,1.94-1.34H544.35a2.08,2.08,0,0,1,1.54.68,2.12,2.12,0,0,1,.54,1.6l-74.17,814.91A2.07,2.07,0,0,1,470.19,2358.22Zm-97-4.16h95.13l73.78-810.75H372.68c-22.82,61-30,220.1-20.75,460.52C358.57,2176.44,371.56,2335,373.16,2354.06Z" transform="translate(0 0)" fill="#404040"/><path d="M437.32,1093.94l-53.44,62.69c-14.51,17-30,37.46-25.68,59.41,3.64,18.56,22,32.14,40.84,33.38s37.38-8.24,50.21-22.13,20.59-31.77,25.75-50a208.73,208.73,0,0,0,7.49-70.24c-.79-11.94-4.68-60.95-18.45-62.85C460.29,1064,450.24,1078.78,437.32,1093.94Z" transform="translate(0 0)" fill="#404040"/><path d="M573.47,1136.29l-102.36-18.75V959.6a74.1,74.1,0,0,1,72.88-74c31.54-.58,62.55,4,68.09,23.07l-.11,0c7.71,27.63,1.56,57.29,1.56,57.29l-3.71,33.64,1.24.35a9.86,9.86,0,0,1,4.49,16.32l-6.85,7.16-.41,8.67c-.9,13.33-4,37.48-32.38,50l-2.44,54.29" transform="translate(0 0)" fill="#fff"/><path d="M573.47,1138.37a1.64,1.64,0,0,1-.38,0l-102.36-18.74a2.08,2.08,0,0,1-1.71-2V959.6c0-41.22,33.62-75.36,74.94-76.11,41.57-.76,65.17,7.51,70.12,24.57a2.07,2.07,0,0,1,.08.65c7.48,27.6,1.66,56.38,1.41,57.6L612.08,998a11.94,11.94,0,0,1,5,19.63l-6.31,6.6-.37,7.89c-.7,10.32-2.52,37.39-32.43,51.24l-2.39,53a2.09,2.09,0,0,1-2.08,2ZM473.19,1115.8l98.31,18,2.33-51.9a2.1,2.1,0,0,1,1.24-1.81c25.48-11.23,30-31.66,31.14-48.21l.4-8.63a2.1,2.1,0,0,1,.58-1.34l6.85-7.16a7.79,7.79,0,0,0-3.54-12.88l-1.24-.34a2.08,2.08,0,0,1-1.51-2.24l3.71-33.64c.1-.49,6-29.7-1.5-56.5a2.15,2.15,0,0,1-.07-.56c-6-18.18-39-21.43-65.86-21-39.06.71-70.84,33-70.84,72Z" transform="translate(0 0)" fill="#404040"/><path d="M581.18,969.48c-.15,3.32,1.38,6.09,3.44,6.19s3.84-2.52,4-5.84-1.39-6.1-3.44-6.19S581.34,966.16,581.18,969.48Z" transform="translate(0 0)" fill="#404040"/><path d="M577.46,956.17a2.08,2.08,0,0,1-1.27-3.74c9.68-7.37,18.75-3.27,22.2-.08a2.08,2.08,0,0,1-2.83,3.06c-.32-.29-7.6-6.7-16.85.33A2,2,0,0,1,577.46,956.17Z" transform="translate(0 0)" fill="#404040"/><path d="M501.43,983.74a2.31,2.31,0,0,1-.37,0,2.09,2.09,0,0,1-1.69-2.42c1.2-6.71,3.94-11.39,8.16-13.92A15.94,15.94,0,0,1,519.68,966a2.09,2.09,0,0,1-1.28,4,11.75,11.75,0,0,0-8.77,1c-3.12,1.88-5.19,5.6-6.16,11A2.07,2.07,0,0,1,501.43,983.74Z" transform="translate(0 0)" fill="#404040"/><path d="M517.22,990.31a2.09,2.09,0,0,1-2-1.68c-2-10.11-10.78-14.53-10.87-14.58a2.08,2.08,0,0,1,1.84-3.74c.43.22,10.74,5.4,13.12,17.52a2.07,2.07,0,0,1-1.64,2.44A1.9,1.9,0,0,1,517.22,990.31Z" transform="translate(0 0)" fill="#404040"/><path d="M590.68,1047.44a2.08,2.08,0,0,1-.6-.09,47.24,47.24,0,0,1-19-11.17,2.09,2.09,0,0,1,2.9-3,43.06,43.06,0,0,0,17.35,10.19,2.08,2.08,0,0,1-.61,4.07Z" transform="translate(0 0)" fill="#404040"/><path d="M553.21,862.53C452,848,407.6,918.88,405.27,955.1c-4,62.45,42.8,90.09,64.08,107.85,9.41,7.85,55.47-61.9,55.47-61.9s-34.3,6.67-33.63-23,34.46-15.84,34.46-15.84,58.29-8.22,87.61-53.08h0C606.84,886,590.37,867.85,553.21,862.53Z" transform="translate(0 0)" fill="#404040"/><path d="M440.5,1659.79q-1.33-9.61-3.59-19.06a183.6,183.6,0,0,0-11-32L428.27,1394l65.92-104.76-118.1-24.74s-26.47,96.62-26.47,143.57c0,30.26,40,265.29,40,265.29a8.71,8.71,0,1,0,17.25-2.39l-3-21.33,17.25-2.39,2.44,17.58a8.7,8.7,0,1,0,17.24-2.39Z" transform="translate(0 0)" fill="#fff"/><path d="M398.25,1682.92a10.78,10.78,0,0,1-10.67-9.31c-1.62-9.54-40-235.48-40-265.57,0-46.69,26.28-143.15,26.54-144.12a2.08,2.08,0,0,1,2.44-1.49l118.1,24.74a2.08,2.08,0,0,1,1.33,3.15l-65.6,104.26L428,1608.25a187.56,187.56,0,0,1,11,32c1.51,6.34,2.73,12.81,3.62,19.26h0l.37,2.62a10.79,10.79,0,0,1-21.38,3l-2.15-15.52-13.12,1.82,2.67,19.26a10.77,10.77,0,0,1-10.7,12.27Zm-20.66-416c-3.67,13.75-25.88,98.6-25.88,141.13,0,29.74,39.59,262.59,40,264.94a6.62,6.62,0,1,0,13.13-1.76l-3-21.32a2.08,2.08,0,0,1,1.77-2.35l17.25-2.39a2.09,2.09,0,0,1,2.35,1.77l2.44,17.59a6.62,6.62,0,0,0,13.12-1.83l-.36-2.62c-.88-6.31-2.07-12.66-3.55-18.86A182.86,182.86,0,0,0,424,1609.53a2.19,2.19,0,0,1-.18-.87L426.19,1394a2.2,2.2,0,0,1,.32-1.09l64.33-102.22Z" transform="translate(0 0)" fill="#404040"/><path d="M371.24,1268.88l114.69,45.59s90.94-158.08,37-191.54C414.48,1055.71,371.24,1268.88,371.24,1268.88Z" transform="translate(0 0)" fill="#fff"/><path d="M485.93,1316.55a2.06,2.06,0,0,1-.77-.14l-114.69-45.6a2.07,2.07,0,0,1-1.27-2.34A435.61,435.61,0,0,1,390,1201c19-47.24,42-76.93,68.15-88.24,20.48-8.85,42.65-6,65.88,8.37s24.21,51.75,2.61,110.8c-15.87,43.37-38.65,83.15-38.88,83.55A2.08,2.08,0,0,1,485.93,1316.55Zm-112.28-49L485,1311.87c9.21-16.49,85.63-156.89,36.8-187.17-22-13.64-42.88-16.36-62-8.09-31.28,13.52-53.11,54.18-65.91,85.92A436.09,436.09,0,0,0,373.65,1267.59Z" transform="translate(0 0)" fill="#404040"/><path d="M421.18,1641.23l3.76,33.1a8.71,8.71,0,0,1-7.43,9.82h0a8.7,8.7,0,0,1-9.82-7.43l-3.76-33.1" transform="translate(0 0)" fill="#fff"/><path d="M416.29,1686.32a10.81,10.81,0,0,1-10.66-9.31l-3.77-33.15a2.08,2.08,0,1,1,4.14-.47l3.76,33.1a6.63,6.63,0,0,0,13.12-1.87l-3.77-33.16a2.08,2.08,0,0,1,1.83-2.3,2.1,2.1,0,0,1,2.31,1.83L427,1674.1a10.78,10.78,0,0,1-9.21,12.11A11.07,11.07,0,0,1,416.29,1686.32Z" transform="translate(0 0)" fill="#404040"/><path d="M428.28,1396.05a2.5,2.5,0,0,1-.47,0l-24.34-5.56a2.08,2.08,0,1,1,.92-4.06l24.35,5.56a2.08,2.08,0,0,1-.46,4.11Z" transform="translate(0 0)" fill="#404040"/><path d="M576.5,1082.81h-.09a71.76,71.76,0,0,1-24.67-6.17,2.08,2.08,0,0,1,1.77-3.77,69,69,0,0,0,23.08,5.78,2.08,2.08,0,0,1-.09,4.16Z" transform="translate(0 0)" fill="#404040"/><polygon points="2354.66 1996.93 2211.53 2458.61 2381.05 2464.25 2470.24 2160.31 2354.66 1996.93" fill="#404040"/><path d="M2473.39,1635.6l9.86-31.67c40.13-240.72,132.72-291.56,175.81-306,6-2,20.63-6.69,20.63-6.69s6.83,16.14,19,22.85c15.83,8.7,44.28,7.44,59.67-2,18.68-11.48,33.58-29.73,33.58-29.73s105.2,4.47,165,94.83c30.3,45.81,34.36,122.9,36,150.86l-80.45,114.29-6.06,214.89h-363s-2.59-55.75-.72-132.26l-4,0C2492.52,1724.71,2459.64,1679.8,2473.39,1635.6Z" transform="translate(0 0)" fill="#404040"/><path d="M2543.48,1857.25h363s77.59,236.93-322.76,209.42l24.8,396.7-160.86-3-93-463.39c-2.9-38.78,12.56-94.72,63.86-93.37l121.09-6.52Z" transform="translate(0 0)" fill="#404040"/><polygon points="2520.38 2458.61 2391.32 2544.67 2597.1 2544.67 2590.71 2458.61 2520.38 2458.61" fill="#404040"/><polygon points="2264.16 2458.61 2135.1 2544.67 2340.88 2544.67 2334.49 2458.61 2264.16 2458.61" fill="#404040"/><path d="M2912.46,1898.9H2536.88a2.09,2.09,0,0,1,0-4.17h375.58a2.09,2.09,0,0,1,0,4.17Z" transform="translate(0 0)" fill="#fff"/><path d="M2528.76,1696.51h-.2a2.08,2.08,0,0,1-1.88-2.27c11.31-118,90.75-308.7,91.55-310.61a2.08,2.08,0,0,1,3.84,1.61c-.8,1.91-80,192-91.24,309.39A2.08,2.08,0,0,1,2528.76,1696.51Z" transform="translate(0 0)" fill="#fff"/><path d="M2667.3,1503.51a2.3,2.3,0,0,1-.63-.1,2.09,2.09,0,0,1-1.45-2.13l13.52-192.86,2.36-48.25a57.81,57.81,0,0,1-38.52-54.61V1103.14c0-33.1,39.12-33.18,77-33.26,11.24,0,21.86-.05,31.51-.9,1.05-.09,2.07-.13,3.07-.13a27.38,27.38,0,0,1,20.72,9c16,17.11,16.12,53.52,15.77,64.2a44,44,0,0,1,10.37-1.32c8.82,0,23.63,3.45,23.63,26.58,0,16.53-10.71,26-29.38,26-1.9,0-3.55-.11-4.8-.23l1.36,104.22a2.06,2.06,0,0,1-.29,1.1l-122.41,204.1A2.08,2.08,0,0,1,2667.3,1503.51Z" transform="translate(0 0)" fill="#fff"/><path d="M2754.11,1070.93c39.11,0,34.28,73.9,34.28,73.9a42.26,42.26,0,0,1,12.58-2c9.73,0,21.55,4.18,21.55,24.5,0,20.9-17.3,23.92-27.3,23.92a45.24,45.24,0,0,1-6.91-.49l1.39,106.6-122.4,204.1,13.52-192.86,2.18-44.5.26-5.36a55.89,55.89,0,0,1-38.6-53.14V1103.14c0-40.32,64.33-28.37,106.56-32.08,1-.09,2-.13,2.89-.13m0-4.17c-1.06,0-2.15,0-3.25.15-9.56.84-20.14.86-31.33.89-37.05.08-79,.17-79,35.34v102.42a59.86,59.86,0,0,0,38.45,56l-.11,2.27-2.18,44.5-13.52,192.77a4.18,4.18,0,0,0,2.91,4.27,4.12,4.12,0,0,0,1.25.19,4.17,4.17,0,0,0,3.57-2l122.4-204.11a4.19,4.19,0,0,0,.6-2.2l-1.33-102c.82,0,1.72.07,2.68.07,20,0,31.46-10.24,31.46-28.09,0-18.22-9.37-28.66-25.71-28.67a44.77,44.77,0,0,0-8.23.81c.19-13.34-1-46.59-16.39-63a29.4,29.4,0,0,0-22.24-9.65Z" transform="translate(0 0)" fill="#404040"/><path d="M2681.06,1263a2.09,2.09,0,0,1,0-4.17c.29,0,29.29-.75,41.63-6.17a2.08,2.08,0,0,1,1.68,3.81c-13.1,5.76-42,6.5-43.22,6.52Z" transform="translate(0 0)" fill="#404040"/><path d="M2695.08,1132.62a2.08,2.08,0,0,1-1.69-3.3c.08-.12,8.71-11.72,23.39-4.56a2.09,2.09,0,1,1-1.83,3.75c-11.57-5.65-17.92,2.89-18.18,3.25A2.07,2.07,0,0,1,2695.08,1132.62Z" transform="translate(0 0)" fill="#404040"/><path d="M2644.66,1130.78a2.07,2.07,0,0,1-1.47-.61,2.09,2.09,0,0,1,0-3c.11-.1,10.47-10.18,23.82-.77a2.08,2.08,0,0,1-2.4,3.41c-10.51-7.42-18.15,0-18.48.31A2,2,0,0,1,2644.66,1130.78Z" transform="translate(0 0)" fill="#404040"/><path d="M2811.43,1185.34a2.09,2.09,0,0,1-1.72-3.26c12.92-19-2.68-30.42-3.35-30.89a2.08,2.08,0,0,1,2.42-3.39c.2.14,19.56,14.34,4.37,36.62A2.07,2.07,0,0,1,2811.43,1185.34Z" transform="translate(0 0)" fill="#404040"/><path d="M2797.27,1172.53a2,2,0,0,1-1.12-.33,2.08,2.08,0,0,1-.63-2.88c6.34-9.85,18.12-10,18.62-10a2.08,2.08,0,0,1,0,4.16h0c-.1,0-10,.15-15.11,8.06A2.08,2.08,0,0,1,2797.27,1172.53Z" transform="translate(0 0)" fill="#404040"/><path d="M2794.27,1099.92c-1.22-35.12-18.11-57.94-17.71-57h0c-.13-12.16-10.17-20.4-20.39-25.19-7.74-3.64-22.25-6.12-29.84-6.07-17.87.12-28.81,3.21-45.35,10-67.1,27.38-60.1,82.62-35.86,82.95,60.35.84,106.08-11.06,125.6-21.39l3.63,73.75s11.85-12.78,21.83-16.34C2796.18,1140.62,2794.88,1117.31,2794.27,1099.92Z" transform="translate(0 0)" fill="#404040"/><path d="M2655.59,1149.93a21.22,21.22,0,0,1-12.11-4.15,2.08,2.08,0,0,1,2.36-3.43c10.89,7.49,18.21.53,18.51.23a2.08,2.08,0,1,1,2.92,3A18,18,0,0,1,2655.59,1149.93Z" transform="translate(0 0)" fill="#404040"/><path d="M2705.83,1149.93a21.22,21.22,0,0,1-12.11-4.15,2.08,2.08,0,1,1,2.36-3.43c10.78,7.42,18.21.52,18.52.22a2.09,2.09,0,0,1,2.94,0,2.07,2.07,0,0,1,0,2.93A17.89,17.89,0,0,1,2705.83,1149.93Z" transform="translate(0 0)" fill="#404040"/><path d="M2715.87,1333.74a2.1,2.1,0,0,1-1.5-.63l-33.08-34.41a2.09,2.09,0,0,1,3-2.89l32,33.34,72.48-33.72a2.08,2.08,0,1,1,1.76,3.77l-73.83,34.35A2.08,2.08,0,0,1,2715.87,1333.74Z" transform="translate(0 0)" fill="#404040"/><path d="M2740.65,1381.2a2.1,2.1,0,0,1-1.85-1.12L2715.24,1335l-37,32.24a2.09,2.09,0,0,1-2.74-3.15l39.05-34a2.07,2.07,0,0,1,1.75-.47,2,2,0,0,1,1.46,1.08l24.78,47.45a2.07,2.07,0,0,1-.88,2.81A2.1,2.1,0,0,1,2740.65,1381.2Z" transform="translate(0 0)" fill="#404040"/><polygon points="2729.25 1357.28 2725.34 1404.63 2667.3 1501.42 2673.49 1441.23 2691.81 1353.11 2729.25 1357.28" fill="#2356ce"/><path d="M2667.3,1503.51a2.17,2.17,0,0,1-.66-.11,2.09,2.09,0,0,1-1.41-2.19l6.19-60.2,18.35-88.32A2.09,2.09,0,0,1,2692,1351l37.44,4.17a2.07,2.07,0,0,1,1.84,2.24l-3.9,47.36a2.27,2.27,0,0,1-.29.9l-58.05,96.78A2.08,2.08,0,0,1,2667.3,1503.51Zm26.16-148.12-17.93,86.26-5.2,50.67,53-88.34,3.69-44.86Z" transform="translate(0 0)" fill="#2356ce"/><polygon points="2715.87 1331.66 2691.81 1353.11 2708.73 1379.11 2729.25 1357.28 2715.87 1331.66" fill="#2356ce"/><path d="M2708.73,1381.2h-.18a2.08,2.08,0,0,1-1.56-.94l-16.93-26a2.08,2.08,0,0,1,.36-2.69l24.06-21.45a2.07,2.07,0,0,1,3.23.59l13.38,25.61a2.08,2.08,0,0,1-.33,2.39l-20.51,21.84A2.09,2.09,0,0,1,2708.73,1381.2Zm-14.2-27.72,14.5,22.27,17.69-18.82L2715.26,1335Z" transform="translate(0 0)" fill="#545454"/><path d="M2695.15,1224.94h-.09a2.09,2.09,0,0,1,0-4.17h0c.85,0,8.34-.24,8.48-8.55a2,2,0,0,1,2.12-2,2.08,2.08,0,0,1,2,2.11C2707.57,1222.31,2699.49,1224.94,2695.15,1224.94Z" transform="translate(0 0)" fill="#404040"/><path d="M2681.27,1198.15a8.43,8.43,0,0,1-4.26-1.09c-3.07-1.77-4.78-5.66-4.35-9.92a27.73,27.73,0,0,1,2.05-7.24c.24-.64.48-1.27.71-1.91a41.67,41.67,0,0,0-3.21-34.69,2.08,2.08,0,0,1,3.6-2.1,46,46,0,0,1,3.54,38.2c-.25.66-.5,1.33-.76,2a24.21,24.21,0,0,0-1.78,6.15c-.22,2.16.4,4.82,2.28,5.9,2.26,1.3,5.46,0,8.58-1.49a2.09,2.09,0,0,1,1.85,3.74C2687.71,1196.59,2684.55,1198.15,2681.27,1198.15Z" transform="translate(0 0)" fill="#404040"/><path d="M2421.07,2329.93a2.08,2.08,0,0,1-2-1.67l-66.41-330.92a2.08,2.08,0,1,1,4.08-.82l66.41,330.92a2.07,2.07,0,0,1-1.63,2.45A2,2,0,0,1,2421.07,2329.93Z" transform="translate(0 0)" fill="#fff"/><rect x="2364.47" y="1342.22" width="187.86" height="282.49" transform="translate(-412.82 1505.91) rotate(-31.56)" fill="#fff"/><path d="M2452.28,1655.06a2.06,2.06,0,0,1-1.77-1l-147.84-240.72a2.06,2.06,0,0,1-.25-1.57,2.09,2.09,0,0,1,.94-1.29l160.08-98.32a2.09,2.09,0,0,1,2.87.69l147.83,240.72a2.06,2.06,0,0,1,.25,1.57,2.09,2.09,0,0,1-.94,1.29l-160.08,98.31A2,2,0,0,1,2452.28,1655.06Zm-145-242.11L2453,1650.11,2609.5,1554l-145.66-237.17Z" transform="translate(0 0)" fill="#404040"/><rect x="2364.47" y="1355.44" width="187.86" height="282.49" transform="matrix(0.98, -0.21, 0.21, 0.98, -256.24, 540.38)" fill="#fff"/><path d="M2395.69,1656.37a2.09,2.09,0,0,1-2-1.65l-58.37-276.39a2.09,2.09,0,0,1,1.6-2.47L2520.69,1337a2.08,2.08,0,0,1,2.47,1.61L2581.54,1615a2.09,2.09,0,0,1-1.61,2.46l-183.81,38.83A2.09,2.09,0,0,1,2395.69,1656.37Zm-55.91-276.86,57.52,272.31,179.73-38-57.52-272.31Z" transform="translate(0 0)" fill="#404040"/><path d="M2386.16,1558l38.05-8a12.35,12.35,0,0,0,9.54-14.65h0a12.36,12.36,0,0,0-14.65-9.55l-38,8" transform="translate(0 0)" fill="#fff"/><path d="M2386.16,1560.09a2.08,2.08,0,0,1-.43-4.12l38.05-8a10.29,10.29,0,1,0-4.25-20.13l-38.05,8a2.08,2.08,0,1,1-.86-4.07l38.05-8a14.45,14.45,0,0,1,6,28.28l-38,8A2.09,2.09,0,0,1,2386.16,1560.09Z" transform="translate(0 0)" fill="#404040"/><path d="M2386.16,1558l24.67-5.21a12.37,12.37,0,0,1,14.66,9.54h0a12.37,12.37,0,0,1-9.55,14.66l-33.51,7.08c-27.76,5.86-32.91-33.88-33.66-56a16.38,16.38,0,0,1,13.39-16.62l43.7-8.19a12.37,12.37,0,0,1,14.66,9.55h0a12.38,12.38,0,0,1-9.55,14.66l-29.92,6.32" transform="translate(0 0)" fill="#fff"/><path d="M2377.11,1586.75a21,21,0,0,1-13.3-4.56c-13-10.17-16.48-35-17.12-54a18.34,18.34,0,0,1,15.09-18.72l43.7-8.19a14.45,14.45,0,0,1,5.92,28.28l-29.92,6.32a2.08,2.08,0,1,1-.86-4.07l29.92-6.32a10.29,10.29,0,0,0-4.25-20.13l-43.75,8.2a14.21,14.21,0,0,0-11.69,14.49c.5,14.87,3.19,41.24,15.53,50.9,4.34,3.41,9.46,4.43,15.62,3.13l33.51-7.07a10.29,10.29,0,1,0-4.25-20.13l-24.67,5.21a2.08,2.08,0,1,1-.86-4.08l24.67-5.21a14.45,14.45,0,1,1,6,28.28l-33.51,7.08A27.71,27.71,0,0,1,2377.11,1586.75Z" transform="translate(0 0)" fill="#404040"/><path d="M2529.67,1613.8l-38.85,1.64a12.37,12.37,0,0,1-12.88-11.84h0a12.37,12.37,0,0,1,11.84-12.88l38.85-1.64" transform="translate(0 0)" fill="#fff"/><path d="M2490.28,1617.53a14.45,14.45,0,0,1-.59-28.89l38.85-1.64a2.08,2.08,0,0,1,.18,4.16l-38.86,1.64a10.3,10.3,0,0,0-9.84,10.71,10.3,10.3,0,0,0,10.71,9.85l38.85-1.64a2.11,2.11,0,0,1,2.17,2,2.08,2.08,0,0,1-2,2.17l-38.85,1.64Z" transform="translate(0 0)" fill="#404040"/><path d="M2529.67,1613.8l-25.19,1.06a12.37,12.37,0,0,0-11.84,12.88h0a12.37,12.37,0,0,0,12.88,11.84l65.33-5.44-3.28-74.29-70.54,5.81a12.37,12.37,0,0,0-11.84,12.88h0a12.36,12.36,0,0,0,12.88,11.83l30.56-1.29" transform="translate(0 0)" fill="#fff"/><path d="M2505.06,1641.67a14.45,14.45,0,0,1-.67-28.89l25.19-1.06a2.08,2.08,0,1,1,.18,4.16l-25.2,1.06a10.29,10.29,0,0,0,.87,20.56l63.25-5.27-3.09-70.13-68.39,5.63a10.29,10.29,0,1,0,.78,20.56l30.56-1.29a2.08,2.08,0,0,1,.18,4.16l-30.56,1.29a14.45,14.45,0,1,1-1.22-28.87l70.46-5.81a2.09,2.09,0,0,1,2.25,2l3.28,74.29a2.09,2.09,0,0,1-1.91,2.17l-65.33,5.43Z" transform="translate(0 0)" fill="#404040"/><path d="M2858,1422.79l-11.27,77.87c-30.62,10-283,57.35-283,57.35l3.23,83c93.32-7,256.88,15.7,345.55,1.38,45-7.26,80.45-64.81,80.45-114.29" transform="translate(0 0)" fill="#404040"/><path d="M2834.29,1649.29c-36.4,0-76.46-2-115.8-3.88-56.79-2.78-110.43-5.41-151.34-2.35a2.09,2.09,0,0,1-.32-4.16c41.19-3.06,95-.43,151.86,2.35,70.84,3.46,144.08,7,193.52-.94a2.08,2.08,0,1,1,.66,4.11C2890.61,1648,2863.64,1649.29,2834.29,1649.29Z" transform="translate(0 0)" fill="#fff"/><path d="M2563.76,1560.09a2.08,2.08,0,0,1-.39-4.13c2.49-.46,246.37-46.25,281.48-56.89l11.08-76.58a2.08,2.08,0,0,1,4.12.6L2848.78,1501a2.07,2.07,0,0,1-1.41,1.68c-30.41,9.95-272.92,55.48-283.23,57.42Z" transform="translate(0 0)" fill="#fff"/><path d="M2867.52,1519.13a2.09,2.09,0,0,1-1.29-.45l-20.8-16.38A2.08,2.08,0,0,1,2848,1499l20.8,16.38a2.08,2.08,0,0,1-1.29,3.72Z" transform="translate(0 0)" fill="#fff"/><path d="M3183.18,2274H3068.1V2246.6a33.53,33.53,0,0,0-33.5-33.5H2890.38a33.53,33.53,0,0,0-33.5,33.5V2274H2741.81a10.41,10.41,0,0,0-10.41,10.41v249.83a10.41,10.41,0,0,0,10.41,10.41h441.37a10.41,10.41,0,0,0,10.41-10.41V2284.43A10.41,10.41,0,0,0,3183.18,2274ZM2878.3,2246.6a12.09,12.09,0,0,1,12.08-12.08H3034.6a12.09,12.09,0,0,1,12.08,12.08V2274H2878.3Z" transform="translate(0 0)" fill="#404040"/><path d="M3194.11,2433.72H2730.88a2.09,2.09,0,1,1,0-4.17h463.23a2.09,2.09,0,0,1,0,4.17Z" transform="translate(0 0)" fill="#fff"/><rect x="2954.59" y="2423.01" width="15.81" height="23.19" fill="#fff"/></svg>